<?xml version="1.0" encoding="utf-8" standalone="no"?>
<!DOCTYPE svg PUBLIC "-//W3C//DTD SVG 1.1//EN"
  "http://www.w3.org/Graphics/SVG/1.1/DTD/svg11.dtd">
<svg xmlns:xlink="http://www.w3.org/1999/xlink" width="771.876468pt" height="306.154906pt" viewBox="0 0 771.876468 306.154906" xmlns="http://www.w3.org/2000/svg" version="1.1">
 <metadata>
  <rdf:RDF xmlns:dc="http://purl.org/dc/elements/1.1/" xmlns:cc="http://creativecommons.org/ns#" xmlns:rdf="http://www.w3.org/1999/02/22-rdf-syntax-ns#">
   <cc:Work>
    <dc:type rdf:resource="http://purl.org/dc/dcmitype/StillImage"/>
    <dc:date>2026-03-07T21:23:48.334880</dc:date>
    <dc:format>image/svg+xml</dc:format>
    <dc:creator>
     <cc:Agent>
      <dc:title>Matplotlib v3.10.1+dfsg1, https://matplotlib.org/</dc:title>
     </cc:Agent>
    </dc:creator>
   </cc:Work>
  </rdf:RDF>
 </metadata>
 <defs>
  <style type="text/css">*{stroke-linejoin: round; stroke-linecap: butt}</style>
 </defs>
 <g id="figure_1">
  <g id="patch_1">
   <path d="M 0 306.154906 
L 771.876468 306.154906 
L 771.876468 0 
L 0 0 
z
" style="fill: #ffffff"/>
  </g>
  <g id="axes_1">
   <g id="patch_2">
    <path d="M 46.803906 269.97225 
L 373.652602 269.97225 
L 373.652602 31.99625 
L 46.803906 31.99625 
z
" style="fill: #fafafa"/>
   </g>
   <g id="FillBetweenPolyCollection_1">
    <defs>
     <path id="m9e42965249" d="M 65.021702 67.28517 
L 65.021702 -72.706799 
L 89.669309 -97.952948 
L 143.251062 -140.995564 
L 196.832816 -172.553251 
L 250.414569 -196.661255 
L 303.996322 -215.90627 
L 357.578076 -231.63338 
L 357.578076 67.28517 
L 357.578076 67.28517 
L 303.996322 67.28517 
L 250.414569 67.28517 
L 196.832816 67.28517 
L 143.251062 67.28517 
L 89.669309 67.28517 
L 65.021702 67.28517 
z
" style="stroke: #2b8a3e; stroke-opacity: 0.1"/>
    </defs>
    <g clip-path="url(#p2105b9fe5a)">
     <use xlink:href="#m9e42965249" x="0" y="306.154906" style="fill: #2b8a3e; fill-opacity: 0.1; stroke: #2b8a3e; stroke-opacity: 0.1"/>
    </g>
   </g>
   <g id="matplotlib.axis_1">
    <g id="xtick_1">
     <g id="line2d_1">
      <path d="M 65.021702 269.97225 
L 65.021702 31.99625 
" clip-path="url(#p2105b9fe5a)" style="fill: none; stroke: #b0b0b0; stroke-opacity: 0.3; stroke-width: 0.5; stroke-linecap: square"/>
     </g>
     <g id="line2d_2">
      <defs>
       <path id="m8a13567a38" d="M 0 0 
L 0 3.5 
" style="stroke: #000000; stroke-width: 0.8"/>
      </defs>
      <g>
       <use xlink:href="#m8a13567a38" x="65.021702" y="269.97225" style="stroke: #000000; stroke-width: 0.8"/>
      </g>
     </g>
     <g id="text_1">
      <!-- 77 -->
      <g transform="translate(59.613577 283.430922) scale(0.085 -0.085)">
       <defs>
        <path id="DejaVuSans-37" d="M 525 4666 
L 3525 4666 
L 3525 4397 
L 1831 0 
L 1172 0 
L 2766 4134 
L 525 4134 
L 525 4666 
z
" transform="scale(0.015625)"/>
       </defs>
       <use xlink:href="#DejaVuSans-37"/>
       <use xlink:href="#DejaVuSans-37" transform="translate(63.623047 0)"/>
      </g>
     </g>
    </g>
    <g id="xtick_2">
     <g id="line2d_3">
      <path d="M 143.251062 269.97225 
L 143.251062 31.99625 
" clip-path="url(#p2105b9fe5a)" style="fill: none; stroke: #b0b0b0; stroke-opacity: 0.3; stroke-width: 0.5; stroke-linecap: square"/>
     </g>
     <g id="line2d_4">
      <g>
       <use xlink:href="#m8a13567a38" x="143.251062" y="269.97225" style="stroke: #000000; stroke-width: 0.8"/>
      </g>
     </g>
     <g id="text_2">
      <!-- 150 -->
      <g transform="translate(135.138875 283.430922) scale(0.085 -0.085)">
       <defs>
        <path id="DejaVuSans-31" d="M 794 531 
L 1825 531 
L 1825 4091 
L 703 3866 
L 703 4441 
L 1819 4666 
L 2450 4666 
L 2450 531 
L 3481 531 
L 3481 0 
L 794 0 
L 794 531 
z
" transform="scale(0.015625)"/>
        <path id="DejaVuSans-35" d="M 691 4666 
L 3169 4666 
L 3169 4134 
L 1269 4134 
L 1269 2991 
Q 1406 3038 1543 3061 
Q 1681 3084 1819 3084 
Q 2600 3084 3056 2656 
Q 3513 2228 3513 1497 
Q 3513 744 3044 326 
Q 2575 -91 1722 -91 
Q 1428 -91 1123 -41 
Q 819 9 494 109 
L 494 744 
Q 775 591 1075 516 
Q 1375 441 1709 441 
Q 2250 441 2565 725 
Q 2881 1009 2881 1497 
Q 2881 1984 2565 2268 
Q 2250 2553 1709 2553 
Q 1456 2553 1204 2497 
Q 953 2441 691 2322 
L 691 4666 
z
" transform="scale(0.015625)"/>
        <path id="DejaVuSans-30" d="M 2034 4250 
Q 1547 4250 1301 3770 
Q 1056 3291 1056 2328 
Q 1056 1369 1301 889 
Q 1547 409 2034 409 
Q 2525 409 2770 889 
Q 3016 1369 3016 2328 
Q 3016 3291 2770 3770 
Q 2525 4250 2034 4250 
z
M 2034 4750 
Q 2819 4750 3233 4129 
Q 3647 3509 3647 2328 
Q 3647 1150 3233 529 
Q 2819 -91 2034 -91 
Q 1250 -91 836 529 
Q 422 1150 422 2328 
Q 422 3509 836 4129 
Q 1250 4750 2034 4750 
z
" transform="scale(0.015625)"/>
       </defs>
       <use xlink:href="#DejaVuSans-31"/>
       <use xlink:href="#DejaVuSans-35" transform="translate(63.623047 0)"/>
       <use xlink:href="#DejaVuSans-30" transform="translate(127.246094 0)"/>
      </g>
     </g>
    </g>
    <g id="xtick_3">
     <g id="line2d_5">
      <path d="M 196.832816 269.97225 
L 196.832816 31.99625 
" clip-path="url(#p2105b9fe5a)" style="fill: none; stroke: #b0b0b0; stroke-opacity: 0.3; stroke-width: 0.5; stroke-linecap: square"/>
     </g>
     <g id="line2d_6">
      <g>
       <use xlink:href="#m8a13567a38" x="196.832816" y="269.97225" style="stroke: #000000; stroke-width: 0.8"/>
      </g>
     </g>
     <g id="text_3">
      <!-- 200 -->
      <g transform="translate(188.720628 283.430922) scale(0.085 -0.085)">
       <defs>
        <path id="DejaVuSans-32" d="M 1228 531 
L 3431 531 
L 3431 0 
L 469 0 
L 469 531 
Q 828 903 1448 1529 
Q 2069 2156 2228 2338 
Q 2531 2678 2651 2914 
Q 2772 3150 2772 3378 
Q 2772 3750 2511 3984 
Q 2250 4219 1831 4219 
Q 1534 4219 1204 4116 
Q 875 4013 500 3803 
L 500 4441 
Q 881 4594 1212 4672 
Q 1544 4750 1819 4750 
Q 2544 4750 2975 4387 
Q 3406 4025 3406 3419 
Q 3406 3131 3298 2873 
Q 3191 2616 2906 2266 
Q 2828 2175 2409 1742 
Q 1991 1309 1228 531 
z
" transform="scale(0.015625)"/>
       </defs>
       <use xlink:href="#DejaVuSans-32"/>
       <use xlink:href="#DejaVuSans-30" transform="translate(63.623047 0)"/>
       <use xlink:href="#DejaVuSans-30" transform="translate(127.246094 0)"/>
      </g>
     </g>
    </g>
    <g id="xtick_4">
     <g id="line2d_7">
      <path d="M 250.414569 269.97225 
L 250.414569 31.99625 
" clip-path="url(#p2105b9fe5a)" style="fill: none; stroke: #b0b0b0; stroke-opacity: 0.3; stroke-width: 0.5; stroke-linecap: square"/>
     </g>
     <g id="line2d_8">
      <g>
       <use xlink:href="#m8a13567a38" x="250.414569" y="269.97225" style="stroke: #000000; stroke-width: 0.8"/>
      </g>
     </g>
     <g id="text_4">
      <!-- 250 -->
      <g transform="translate(242.302381 283.430922) scale(0.085 -0.085)">
       <use xlink:href="#DejaVuSans-32"/>
       <use xlink:href="#DejaVuSans-35" transform="translate(63.623047 0)"/>
       <use xlink:href="#DejaVuSans-30" transform="translate(127.246094 0)"/>
      </g>
     </g>
    </g>
    <g id="xtick_5">
     <g id="line2d_9">
      <path d="M 303.996322 269.97225 
L 303.996322 31.99625 
" clip-path="url(#p2105b9fe5a)" style="fill: none; stroke: #b0b0b0; stroke-opacity: 0.3; stroke-width: 0.5; stroke-linecap: square"/>
     </g>
     <g id="line2d_10">
      <g>
       <use xlink:href="#m8a13567a38" x="303.996322" y="269.97225" style="stroke: #000000; stroke-width: 0.8"/>
      </g>
     </g>
     <g id="text_5">
      <!-- 300 -->
      <g transform="translate(295.884135 283.430922) scale(0.085 -0.085)">
       <defs>
        <path id="DejaVuSans-33" d="M 2597 2516 
Q 3050 2419 3304 2112 
Q 3559 1806 3559 1356 
Q 3559 666 3084 287 
Q 2609 -91 1734 -91 
Q 1441 -91 1130 -33 
Q 819 25 488 141 
L 488 750 
Q 750 597 1062 519 
Q 1375 441 1716 441 
Q 2309 441 2620 675 
Q 2931 909 2931 1356 
Q 2931 1769 2642 2001 
Q 2353 2234 1838 2234 
L 1294 2234 
L 1294 2753 
L 1863 2753 
Q 2328 2753 2575 2939 
Q 2822 3125 2822 3475 
Q 2822 3834 2567 4026 
Q 2313 4219 1838 4219 
Q 1578 4219 1281 4162 
Q 984 4106 628 3988 
L 628 4550 
Q 988 4650 1302 4700 
Q 1616 4750 1894 4750 
Q 2613 4750 3031 4423 
Q 3450 4097 3450 3541 
Q 3450 3153 3228 2886 
Q 3006 2619 2597 2516 
z
" transform="scale(0.015625)"/>
       </defs>
       <use xlink:href="#DejaVuSans-33"/>
       <use xlink:href="#DejaVuSans-30" transform="translate(63.623047 0)"/>
       <use xlink:href="#DejaVuSans-30" transform="translate(127.246094 0)"/>
      </g>
     </g>
    </g>
    <g id="xtick_6">
     <g id="line2d_11">
      <path d="M 357.578076 269.97225 
L 357.578076 31.99625 
" clip-path="url(#p2105b9fe5a)" style="fill: none; stroke: #b0b0b0; stroke-opacity: 0.3; stroke-width: 0.5; stroke-linecap: square"/>
     </g>
     <g id="line2d_12">
      <g>
       <use xlink:href="#m8a13567a38" x="357.578076" y="269.97225" style="stroke: #000000; stroke-width: 0.8"/>
      </g>
     </g>
     <g id="text_6">
      <!-- 350 -->
      <g transform="translate(349.465888 283.430922) scale(0.085 -0.085)">
       <use xlink:href="#DejaVuSans-33"/>
       <use xlink:href="#DejaVuSans-35" transform="translate(63.623047 0)"/>
       <use xlink:href="#DejaVuSans-30" transform="translate(127.246094 0)"/>
      </g>
     </g>
    </g>
    <g id="text_7">
     <!-- Temperature (K) -->
     <g transform="translate(169.789191 296.797094) scale(0.1 -0.1)">
      <defs>
       <path id="DejaVuSans-54" d="M -19 4666 
L 3928 4666 
L 3928 4134 
L 2272 4134 
L 2272 0 
L 1638 0 
L 1638 4134 
L -19 4134 
L -19 4666 
z
" transform="scale(0.015625)"/>
       <path id="DejaVuSans-65" d="M 3597 1894 
L 3597 1613 
L 953 1613 
Q 991 1019 1311 708 
Q 1631 397 2203 397 
Q 2534 397 2845 478 
Q 3156 559 3463 722 
L 3463 178 
Q 3153 47 2828 -22 
Q 2503 -91 2169 -91 
Q 1331 -91 842 396 
Q 353 884 353 1716 
Q 353 2575 817 3079 
Q 1281 3584 2069 3584 
Q 2775 3584 3186 3129 
Q 3597 2675 3597 1894 
z
M 3022 2063 
Q 3016 2534 2758 2815 
Q 2500 3097 2075 3097 
Q 1594 3097 1305 2825 
Q 1016 2553 972 2059 
L 3022 2063 
z
" transform="scale(0.015625)"/>
       <path id="DejaVuSans-6d" d="M 3328 2828 
Q 3544 3216 3844 3400 
Q 4144 3584 4550 3584 
Q 5097 3584 5394 3201 
Q 5691 2819 5691 2113 
L 5691 0 
L 5113 0 
L 5113 2094 
Q 5113 2597 4934 2840 
Q 4756 3084 4391 3084 
Q 3944 3084 3684 2787 
Q 3425 2491 3425 1978 
L 3425 0 
L 2847 0 
L 2847 2094 
Q 2847 2600 2669 2842 
Q 2491 3084 2119 3084 
Q 1678 3084 1418 2786 
Q 1159 2488 1159 1978 
L 1159 0 
L 581 0 
L 581 3500 
L 1159 3500 
L 1159 2956 
Q 1356 3278 1631 3431 
Q 1906 3584 2284 3584 
Q 2666 3584 2933 3390 
Q 3200 3197 3328 2828 
z
" transform="scale(0.015625)"/>
       <path id="DejaVuSans-70" d="M 1159 525 
L 1159 -1331 
L 581 -1331 
L 581 3500 
L 1159 3500 
L 1159 2969 
Q 1341 3281 1617 3432 
Q 1894 3584 2278 3584 
Q 2916 3584 3314 3078 
Q 3713 2572 3713 1747 
Q 3713 922 3314 415 
Q 2916 -91 2278 -91 
Q 1894 -91 1617 61 
Q 1341 213 1159 525 
z
M 3116 1747 
Q 3116 2381 2855 2742 
Q 2594 3103 2138 3103 
Q 1681 3103 1420 2742 
Q 1159 2381 1159 1747 
Q 1159 1113 1420 752 
Q 1681 391 2138 391 
Q 2594 391 2855 752 
Q 3116 1113 3116 1747 
z
" transform="scale(0.015625)"/>
       <path id="DejaVuSans-72" d="M 2631 2963 
Q 2534 3019 2420 3045 
Q 2306 3072 2169 3072 
Q 1681 3072 1420 2755 
Q 1159 2438 1159 1844 
L 1159 0 
L 581 0 
L 581 3500 
L 1159 3500 
L 1159 2956 
Q 1341 3275 1631 3429 
Q 1922 3584 2338 3584 
Q 2397 3584 2469 3576 
Q 2541 3569 2628 3553 
L 2631 2963 
z
" transform="scale(0.015625)"/>
       <path id="DejaVuSans-61" d="M 2194 1759 
Q 1497 1759 1228 1600 
Q 959 1441 959 1056 
Q 959 750 1161 570 
Q 1363 391 1709 391 
Q 2188 391 2477 730 
Q 2766 1069 2766 1631 
L 2766 1759 
L 2194 1759 
z
M 3341 1997 
L 3341 0 
L 2766 0 
L 2766 531 
Q 2569 213 2275 61 
Q 1981 -91 1556 -91 
Q 1019 -91 701 211 
Q 384 513 384 1019 
Q 384 1609 779 1909 
Q 1175 2209 1959 2209 
L 2766 2209 
L 2766 2266 
Q 2766 2663 2505 2880 
Q 2244 3097 1772 3097 
Q 1472 3097 1187 3025 
Q 903 2953 641 2809 
L 641 3341 
Q 956 3463 1253 3523 
Q 1550 3584 1831 3584 
Q 2591 3584 2966 3190 
Q 3341 2797 3341 1997 
z
" transform="scale(0.015625)"/>
       <path id="DejaVuSans-74" d="M 1172 4494 
L 1172 3500 
L 2356 3500 
L 2356 3053 
L 1172 3053 
L 1172 1153 
Q 1172 725 1289 603 
Q 1406 481 1766 481 
L 2356 481 
L 2356 0 
L 1766 0 
Q 1100 0 847 248 
Q 594 497 594 1153 
L 594 3053 
L 172 3053 
L 172 3500 
L 594 3500 
L 594 4494 
L 1172 4494 
z
" transform="scale(0.015625)"/>
       <path id="DejaVuSans-75" d="M 544 1381 
L 544 3500 
L 1119 3500 
L 1119 1403 
Q 1119 906 1312 657 
Q 1506 409 1894 409 
Q 2359 409 2629 706 
Q 2900 1003 2900 1516 
L 2900 3500 
L 3475 3500 
L 3475 0 
L 2900 0 
L 2900 538 
Q 2691 219 2414 64 
Q 2138 -91 1772 -91 
Q 1169 -91 856 284 
Q 544 659 544 1381 
z
M 1991 3584 
L 1991 3584 
z
" transform="scale(0.015625)"/>
       <path id="DejaVuSans-20" transform="scale(0.015625)"/>
       <path id="DejaVuSans-28" d="M 1984 4856 
Q 1566 4138 1362 3434 
Q 1159 2731 1159 2009 
Q 1159 1288 1364 580 
Q 1569 -128 1984 -844 
L 1484 -844 
Q 1016 -109 783 600 
Q 550 1309 550 2009 
Q 550 2706 781 3412 
Q 1013 4119 1484 4856 
L 1984 4856 
z
" transform="scale(0.015625)"/>
       <path id="DejaVuSans-4b" d="M 628 4666 
L 1259 4666 
L 1259 2694 
L 3353 4666 
L 4166 4666 
L 1850 2491 
L 4331 0 
L 3500 0 
L 1259 2247 
L 1259 0 
L 628 0 
L 628 4666 
z
" transform="scale(0.015625)"/>
       <path id="DejaVuSans-29" d="M 513 4856 
L 1013 4856 
Q 1481 4119 1714 3412 
Q 1947 2706 1947 2009 
Q 1947 1309 1714 600 
Q 1481 -109 1013 -844 
L 513 -844 
Q 928 -128 1133 580 
Q 1338 1288 1338 2009 
Q 1338 2731 1133 3434 
Q 928 4138 513 4856 
z
" transform="scale(0.015625)"/>
      </defs>
      <use xlink:href="#DejaVuSans-54"/>
      <use xlink:href="#DejaVuSans-65" transform="translate(44.083984 0)"/>
      <use xlink:href="#DejaVuSans-6d" transform="translate(105.607422 0)"/>
      <use xlink:href="#DejaVuSans-70" transform="translate(203.019531 0)"/>
      <use xlink:href="#DejaVuSans-65" transform="translate(266.496094 0)"/>
      <use xlink:href="#DejaVuSans-72" transform="translate(328.019531 0)"/>
      <use xlink:href="#DejaVuSans-61" transform="translate(369.132812 0)"/>
      <use xlink:href="#DejaVuSans-74" transform="translate(430.412109 0)"/>
      <use xlink:href="#DejaVuSans-75" transform="translate(469.621094 0)"/>
      <use xlink:href="#DejaVuSans-72" transform="translate(533 0)"/>
      <use xlink:href="#DejaVuSans-65" transform="translate(571.863281 0)"/>
      <use xlink:href="#DejaVuSans-20" transform="translate(633.386719 0)"/>
      <use xlink:href="#DejaVuSans-28" transform="translate(665.173828 0)"/>
      <use xlink:href="#DejaVuSans-4b" transform="translate(704.1875 0)"/>
      <use xlink:href="#DejaVuSans-29" transform="translate(769.763672 0)"/>
     </g>
    </g>
   </g>
   <g id="matplotlib.axis_2">
    <g id="ytick_1">
     <g id="line2d_13">
      <path d="M 46.803906 269.97225 
L 373.652602 269.97225 
" clip-path="url(#p2105b9fe5a)" style="fill: none; stroke: #b0b0b0; stroke-opacity: 0.3; stroke-width: 0.5; stroke-linecap: square"/>
     </g>
     <g id="line2d_14">
      <defs>
       <path id="mf2ac5baa58" d="M 0 0 
L -3.5 0 
" style="stroke: #000000; stroke-width: 0.8"/>
      </defs>
      <g>
       <use xlink:href="#mf2ac5baa58" x="46.803906" y="269.97225" style="stroke: #000000; stroke-width: 0.8"/>
      </g>
     </g>
     <g id="text_8">
      <!-- 0.10 -->
      <g transform="translate(20.878125 273.201586) scale(0.085 -0.085)">
       <defs>
        <path id="DejaVuSans-2e" d="M 684 794 
L 1344 794 
L 1344 0 
L 684 0 
L 684 794 
z
" transform="scale(0.015625)"/>
       </defs>
       <use xlink:href="#DejaVuSans-30"/>
       <use xlink:href="#DejaVuSans-2e" transform="translate(63.623047 0)"/>
       <use xlink:href="#DejaVuSans-31" transform="translate(95.410156 0)"/>
       <use xlink:href="#DejaVuSans-30" transform="translate(159.033203 0)"/>
      </g>
     </g>
    </g>
    <g id="ytick_2">
     <g id="line2d_15">
      <path d="M 46.803906 218.238337 
L 373.652602 218.238337 
" clip-path="url(#p2105b9fe5a)" style="fill: none; stroke: #b0b0b0; stroke-opacity: 0.3; stroke-width: 0.5; stroke-linecap: square"/>
     </g>
     <g id="line2d_16">
      <g>
       <use xlink:href="#mf2ac5baa58" x="46.803906" y="218.238337" style="stroke: #000000; stroke-width: 0.8"/>
      </g>
     </g>
     <g id="text_9">
      <!-- 0.15 -->
      <g transform="translate(20.878125 221.467673) scale(0.085 -0.085)">
       <use xlink:href="#DejaVuSans-30"/>
       <use xlink:href="#DejaVuSans-2e" transform="translate(63.623047 0)"/>
       <use xlink:href="#DejaVuSans-31" transform="translate(95.410156 0)"/>
       <use xlink:href="#DejaVuSans-35" transform="translate(159.033203 0)"/>
      </g>
     </g>
    </g>
    <g id="ytick_3">
     <g id="line2d_17">
      <path d="M 46.803906 166.504424 
L 373.652602 166.504424 
" clip-path="url(#p2105b9fe5a)" style="fill: none; stroke: #b0b0b0; stroke-opacity: 0.3; stroke-width: 0.5; stroke-linecap: square"/>
     </g>
     <g id="line2d_18">
      <g>
       <use xlink:href="#mf2ac5baa58" x="46.803906" y="166.504424" style="stroke: #000000; stroke-width: 0.8"/>
      </g>
     </g>
     <g id="text_10">
      <!-- 0.20 -->
      <g transform="translate(20.878125 169.73376) scale(0.085 -0.085)">
       <use xlink:href="#DejaVuSans-30"/>
       <use xlink:href="#DejaVuSans-2e" transform="translate(63.623047 0)"/>
       <use xlink:href="#DejaVuSans-32" transform="translate(95.410156 0)"/>
       <use xlink:href="#DejaVuSans-30" transform="translate(159.033203 0)"/>
      </g>
     </g>
    </g>
    <g id="ytick_4">
     <g id="line2d_19">
      <path d="M 46.803906 114.770511 
L 373.652602 114.770511 
" clip-path="url(#p2105b9fe5a)" style="fill: none; stroke: #b0b0b0; stroke-opacity: 0.3; stroke-width: 0.5; stroke-linecap: square"/>
     </g>
     <g id="line2d_20">
      <g>
       <use xlink:href="#mf2ac5baa58" x="46.803906" y="114.770511" style="stroke: #000000; stroke-width: 0.8"/>
      </g>
     </g>
     <g id="text_11">
      <!-- 0.25 -->
      <g transform="translate(20.878125 117.999847) scale(0.085 -0.085)">
       <use xlink:href="#DejaVuSans-30"/>
       <use xlink:href="#DejaVuSans-2e" transform="translate(63.623047 0)"/>
       <use xlink:href="#DejaVuSans-32" transform="translate(95.410156 0)"/>
       <use xlink:href="#DejaVuSans-35" transform="translate(159.033203 0)"/>
      </g>
     </g>
    </g>
    <g id="ytick_5">
     <g id="line2d_21">
      <path d="M 46.803906 63.036598 
L 373.652602 63.036598 
" clip-path="url(#p2105b9fe5a)" style="fill: none; stroke: #b0b0b0; stroke-opacity: 0.3; stroke-width: 0.5; stroke-linecap: square"/>
     </g>
     <g id="line2d_22">
      <g>
       <use xlink:href="#mf2ac5baa58" x="46.803906" y="63.036598" style="stroke: #000000; stroke-width: 0.8"/>
      </g>
     </g>
     <g id="text_12">
      <!-- 0.30 -->
      <g transform="translate(20.878125 66.265934) scale(0.085 -0.085)">
       <use xlink:href="#DejaVuSans-30"/>
       <use xlink:href="#DejaVuSans-2e" transform="translate(63.623047 0)"/>
       <use xlink:href="#DejaVuSans-33" transform="translate(95.410156 0)"/>
       <use xlink:href="#DejaVuSans-30" transform="translate(159.033203 0)"/>
      </g>
     </g>
    </g>
    <g id="text_13">
     <!-- Energy transfer efficiency  η -->
     <g transform="translate(14.798438 221.838937) rotate(-90) scale(0.1 -0.1)">
      <defs>
       <path id="DejaVuSans-45" d="M 628 4666 
L 3578 4666 
L 3578 4134 
L 1259 4134 
L 1259 2753 
L 3481 2753 
L 3481 2222 
L 1259 2222 
L 1259 531 
L 3634 531 
L 3634 0 
L 628 0 
L 628 4666 
z
" transform="scale(0.015625)"/>
       <path id="DejaVuSans-6e" d="M 3513 2113 
L 3513 0 
L 2938 0 
L 2938 2094 
Q 2938 2591 2744 2837 
Q 2550 3084 2163 3084 
Q 1697 3084 1428 2787 
Q 1159 2491 1159 1978 
L 1159 0 
L 581 0 
L 581 3500 
L 1159 3500 
L 1159 2956 
Q 1366 3272 1645 3428 
Q 1925 3584 2291 3584 
Q 2894 3584 3203 3211 
Q 3513 2838 3513 2113 
z
" transform="scale(0.015625)"/>
       <path id="DejaVuSans-67" d="M 2906 1791 
Q 2906 2416 2648 2759 
Q 2391 3103 1925 3103 
Q 1463 3103 1205 2759 
Q 947 2416 947 1791 
Q 947 1169 1205 825 
Q 1463 481 1925 481 
Q 2391 481 2648 825 
Q 2906 1169 2906 1791 
z
M 3481 434 
Q 3481 -459 3084 -895 
Q 2688 -1331 1869 -1331 
Q 1566 -1331 1297 -1286 
Q 1028 -1241 775 -1147 
L 775 -588 
Q 1028 -725 1275 -790 
Q 1522 -856 1778 -856 
Q 2344 -856 2625 -561 
Q 2906 -266 2906 331 
L 2906 616 
Q 2728 306 2450 153 
Q 2172 0 1784 0 
Q 1141 0 747 490 
Q 353 981 353 1791 
Q 353 2603 747 3093 
Q 1141 3584 1784 3584 
Q 2172 3584 2450 3431 
Q 2728 3278 2906 2969 
L 2906 3500 
L 3481 3500 
L 3481 434 
z
" transform="scale(0.015625)"/>
       <path id="DejaVuSans-79" d="M 2059 -325 
Q 1816 -950 1584 -1140 
Q 1353 -1331 966 -1331 
L 506 -1331 
L 506 -850 
L 844 -850 
Q 1081 -850 1212 -737 
Q 1344 -625 1503 -206 
L 1606 56 
L 191 3500 
L 800 3500 
L 1894 763 
L 2988 3500 
L 3597 3500 
L 2059 -325 
z
" transform="scale(0.015625)"/>
       <path id="DejaVuSans-73" d="M 2834 3397 
L 2834 2853 
Q 2591 2978 2328 3040 
Q 2066 3103 1784 3103 
Q 1356 3103 1142 2972 
Q 928 2841 928 2578 
Q 928 2378 1081 2264 
Q 1234 2150 1697 2047 
L 1894 2003 
Q 2506 1872 2764 1633 
Q 3022 1394 3022 966 
Q 3022 478 2636 193 
Q 2250 -91 1575 -91 
Q 1294 -91 989 -36 
Q 684 19 347 128 
L 347 722 
Q 666 556 975 473 
Q 1284 391 1588 391 
Q 1994 391 2212 530 
Q 2431 669 2431 922 
Q 2431 1156 2273 1281 
Q 2116 1406 1581 1522 
L 1381 1569 
Q 847 1681 609 1914 
Q 372 2147 372 2553 
Q 372 3047 722 3315 
Q 1072 3584 1716 3584 
Q 2034 3584 2315 3537 
Q 2597 3491 2834 3397 
z
" transform="scale(0.015625)"/>
       <path id="DejaVuSans-66" d="M 2375 4863 
L 2375 4384 
L 1825 4384 
Q 1516 4384 1395 4259 
Q 1275 4134 1275 3809 
L 1275 3500 
L 2222 3500 
L 2222 3053 
L 1275 3053 
L 1275 0 
L 697 0 
L 697 3053 
L 147 3053 
L 147 3500 
L 697 3500 
L 697 3744 
Q 697 4328 969 4595 
Q 1241 4863 1831 4863 
L 2375 4863 
z
" transform="scale(0.015625)"/>
       <path id="DejaVuSans-69" d="M 603 3500 
L 1178 3500 
L 1178 0 
L 603 0 
L 603 3500 
z
M 603 4863 
L 1178 4863 
L 1178 4134 
L 603 4134 
L 603 4863 
z
" transform="scale(0.015625)"/>
       <path id="DejaVuSans-63" d="M 3122 3366 
L 3122 2828 
Q 2878 2963 2633 3030 
Q 2388 3097 2138 3097 
Q 1578 3097 1268 2742 
Q 959 2388 959 1747 
Q 959 1106 1268 751 
Q 1578 397 2138 397 
Q 2388 397 2633 464 
Q 2878 531 3122 666 
L 3122 134 
Q 2881 22 2623 -34 
Q 2366 -91 2075 -91 
Q 1284 -91 818 406 
Q 353 903 353 1747 
Q 353 2603 823 3093 
Q 1294 3584 2113 3584 
Q 2378 3584 2631 3529 
Q 2884 3475 3122 3366 
z
" transform="scale(0.015625)"/>
       <path id="DejaVuSans-3b7" d="M 3513 2113 
L 3513 -1331 
L 2938 -1331 
L 2938 2094 
Q 2938 2591 2744 2837 
Q 2550 3084 2163 3084 
Q 1697 3084 1428 2787 
Q 1159 2491 1159 1978 
L 1159 0 
L 581 0 
L 581 3500 
L 1159 3500 
L 1159 2956 
Q 1366 3272 1644 3428 
Q 1925 3584 2291 3584 
Q 2894 3584 3203 3213 
Q 3513 2838 3513 2113 
z
" transform="scale(0.015625)"/>
      </defs>
      <use xlink:href="#DejaVuSans-45"/>
      <use xlink:href="#DejaVuSans-6e" transform="translate(63.183594 0)"/>
      <use xlink:href="#DejaVuSans-65" transform="translate(126.5625 0)"/>
      <use xlink:href="#DejaVuSans-72" transform="translate(188.085938 0)"/>
      <use xlink:href="#DejaVuSans-67" transform="translate(227.449219 0)"/>
      <use xlink:href="#DejaVuSans-79" transform="translate(290.925781 0)"/>
      <use xlink:href="#DejaVuSans-20" transform="translate(350.105469 0)"/>
      <use xlink:href="#DejaVuSans-74" transform="translate(381.892578 0)"/>
      <use xlink:href="#DejaVuSans-72" transform="translate(421.101562 0)"/>
      <use xlink:href="#DejaVuSans-61" transform="translate(462.214844 0)"/>
      <use xlink:href="#DejaVuSans-6e" transform="translate(523.494141 0)"/>
      <use xlink:href="#DejaVuSans-73" transform="translate(586.873047 0)"/>
      <use xlink:href="#DejaVuSans-66" transform="translate(638.972656 0)"/>
      <use xlink:href="#DejaVuSans-65" transform="translate(674.177734 0)"/>
      <use xlink:href="#DejaVuSans-72" transform="translate(735.701172 0)"/>
      <use xlink:href="#DejaVuSans-20" transform="translate(776.814453 0)"/>
      <use xlink:href="#DejaVuSans-65" transform="translate(808.601562 0)"/>
      <use xlink:href="#DejaVuSans-66" transform="translate(870.125 0)"/>
      <use xlink:href="#DejaVuSans-66" transform="translate(905.330078 0)"/>
      <use xlink:href="#DejaVuSans-69" transform="translate(940.535156 0)"/>
      <use xlink:href="#DejaVuSans-63" transform="translate(968.318359 0)"/>
      <use xlink:href="#DejaVuSans-69" transform="translate(1023.298828 0)"/>
      <use xlink:href="#DejaVuSans-65" transform="translate(1051.082031 0)"/>
      <use xlink:href="#DejaVuSans-6e" transform="translate(1112.605469 0)"/>
      <use xlink:href="#DejaVuSans-63" transform="translate(1175.984375 0)"/>
      <use xlink:href="#DejaVuSans-79" transform="translate(1230.964844 0)"/>
      <use xlink:href="#DejaVuSans-20" transform="translate(1290.144531 0)"/>
      <use xlink:href="#DejaVuSans-20" transform="translate(1321.931641 0)"/>
      <use xlink:href="#DejaVuSans-3b7" transform="translate(1353.71875 0)"/>
     </g>
    </g>
   </g>
   <g id="line2d_23">
    <path d="M 303.996322 269.97225 
L 303.996322 31.99625 
" clip-path="url(#p2105b9fe5a)" style="fill: none; stroke-dasharray: 2.96,1.28; stroke-dashoffset: 0; stroke: #868e96; stroke-opacity: 0.7; stroke-width: 0.8"/>
   </g>
   <g id="patch_3">
    <path d="M 46.803906 269.97225 
L 46.803906 31.99625 
" style="fill: none; stroke: #000000; stroke-width: 0.8; stroke-linejoin: miter; stroke-linecap: square"/>
   </g>
   <g id="patch_4">
    <path d="M 373.652602 269.97225 
L 373.652602 31.99625 
" style="fill: none; stroke: #000000; stroke-width: 0.8; stroke-linejoin: miter; stroke-linecap: square"/>
   </g>
   <g id="patch_5">
    <path d="M 46.803906 269.97225 
L 373.652602 269.97225 
" style="fill: none; stroke: #000000; stroke-width: 0.8; stroke-linejoin: miter; stroke-linecap: square"/>
   </g>
   <g id="patch_6">
    <path d="M 46.803906 31.99625 
L 373.652602 31.99625 
" style="fill: none; stroke: #000000; stroke-width: 0.8; stroke-linejoin: miter; stroke-linecap: square"/>
   </g>
   <g id="line2d_24">
    <path d="M 65.021702 233.448107 
L 89.669309 208.201958 
L 143.251062 165.159342 
L 196.832816 133.601655 
L 250.414569 109.493652 
L 303.996322 90.248636 
L 357.578076 74.521527 
" clip-path="url(#p2105b9fe5a)" style="fill: none; stroke: #2b8a3e; stroke-width: 2.5; stroke-linecap: square"/>
    <defs>
     <path id="md7b281ad99" d="M 0 3 
C 0.795609 3 1.55874 2.683901 2.12132 2.12132 
C 2.683901 1.55874 3 0.795609 3 0 
C 3 -0.795609 2.683901 -1.55874 2.12132 -2.12132 
C 1.55874 -2.683901 0.795609 -3 0 -3 
C -0.795609 -3 -1.55874 -2.683901 -2.12132 -2.12132 
C -2.683901 -1.55874 -3 -0.795609 -3 0 
C -3 0.795609 -2.683901 1.55874 -2.12132 2.12132 
C -1.55874 2.683901 -0.795609 3 0 3 
z
" style="stroke: #2b8a3e"/>
    </defs>
    <g clip-path="url(#p2105b9fe5a)">
     <use xlink:href="#md7b281ad99" x="65.021702" y="233.448107" style="fill: #2b8a3e; stroke: #2b8a3e"/>
     <use xlink:href="#md7b281ad99" x="89.669309" y="208.201958" style="fill: #2b8a3e; stroke: #2b8a3e"/>
     <use xlink:href="#md7b281ad99" x="143.251062" y="165.159342" style="fill: #2b8a3e; stroke: #2b8a3e"/>
     <use xlink:href="#md7b281ad99" x="196.832816" y="133.601655" style="fill: #2b8a3e; stroke: #2b8a3e"/>
     <use xlink:href="#md7b281ad99" x="250.414569" y="109.493652" style="fill: #2b8a3e; stroke: #2b8a3e"/>
     <use xlink:href="#md7b281ad99" x="303.996322" y="90.248636" style="fill: #2b8a3e; stroke: #2b8a3e"/>
     <use xlink:href="#md7b281ad99" x="357.578076" y="74.521527" style="fill: #2b8a3e; stroke: #2b8a3e"/>
    </g>
   </g>
   <g id="text_14">
    <!-- 300 K -->
    <g style="fill: #868e96" transform="translate(306.139592 218.626995) scale(0.075 -0.075)">
     <use xlink:href="#DejaVuSans-33"/>
     <use xlink:href="#DejaVuSans-30" transform="translate(63.623047 0)"/>
     <use xlink:href="#DejaVuSans-30" transform="translate(127.246094 0)"/>
     <use xlink:href="#DejaVuSans-20" transform="translate(190.869141 0)"/>
     <use xlink:href="#DejaVuSans-4b" transform="translate(222.65625 0)"/>
    </g>
    <!-- (room temp) -->
    <g style="fill: #868e96" transform="translate(306.139592 227.025354) scale(0.075 -0.075)">
     <defs>
      <path id="DejaVuSans-6f" d="M 1959 3097 
Q 1497 3097 1228 2736 
Q 959 2375 959 1747 
Q 959 1119 1226 758 
Q 1494 397 1959 397 
Q 2419 397 2687 759 
Q 2956 1122 2956 1747 
Q 2956 2369 2687 2733 
Q 2419 3097 1959 3097 
z
M 1959 3584 
Q 2709 3584 3137 3096 
Q 3566 2609 3566 1747 
Q 3566 888 3137 398 
Q 2709 -91 1959 -91 
Q 1206 -91 779 398 
Q 353 888 353 1747 
Q 353 2609 779 3096 
Q 1206 3584 1959 3584 
z
" transform="scale(0.015625)"/>
     </defs>
     <use xlink:href="#DejaVuSans-28"/>
     <use xlink:href="#DejaVuSans-72" transform="translate(39.013672 0)"/>
     <use xlink:href="#DejaVuSans-6f" transform="translate(77.876953 0)"/>
     <use xlink:href="#DejaVuSans-6f" transform="translate(139.058594 0)"/>
     <use xlink:href="#DejaVuSans-6d" transform="translate(200.240234 0)"/>
     <use xlink:href="#DejaVuSans-20" transform="translate(297.652344 0)"/>
     <use xlink:href="#DejaVuSans-74" transform="translate(329.439453 0)"/>
     <use xlink:href="#DejaVuSans-65" transform="translate(368.648438 0)"/>
     <use xlink:href="#DejaVuSans-6d" transform="translate(430.171875 0)"/>
     <use xlink:href="#DejaVuSans-70" transform="translate(527.583984 0)"/>
     <use xlink:href="#DejaVuSans-29" transform="translate(591.060547 0)"/>
    </g>
   </g>
   <g id="patch_7">
    <path d="M 67.026064 238.931902 
Q 211.302322 238.931902 354.236939 238.931902 
" style="fill: none; stroke: #e53e3e; stroke-width: 1.2; stroke-linecap: round"/>
    <path d="M 350.236939 236.931902 
L 354.236939 238.931902 
L 350.236939 240.931902 
" style="fill: none; stroke: #e53e3e; stroke-width: 1.2; stroke-linecap: round"/>
   </g>
   <g id="text_15">
    <!-- classical -->
    <g style="fill: #e53e3e" transform="translate(175.722297 242.949682) scale(0.075 -0.075)">
     <defs>
      <path id="DejaVuSans-6c" d="M 603 4863 
L 1178 4863 
L 1178 0 
L 603 0 
L 603 4863 
z
" transform="scale(0.015625)"/>
     </defs>
     <use xlink:href="#DejaVuSans-63"/>
     <use xlink:href="#DejaVuSans-6c" transform="translate(54.980469 0)"/>
     <use xlink:href="#DejaVuSans-61" transform="translate(82.763672 0)"/>
     <use xlink:href="#DejaVuSans-73" transform="translate(144.042969 0)"/>
     <use xlink:href="#DejaVuSans-73" transform="translate(196.142578 0)"/>
     <use xlink:href="#DejaVuSans-69" transform="translate(248.242188 0)"/>
     <use xlink:href="#DejaVuSans-63" transform="translate(276.025391 0)"/>
     <use xlink:href="#DejaVuSans-61" transform="translate(331.005859 0)"/>
     <use xlink:href="#DejaVuSans-6c" transform="translate(392.285156 0)"/>
    </g>
    <!-- expectation -->
    <g style="fill: #e53e3e" transform="translate(169.31214 251.348041) scale(0.075 -0.075)">
     <defs>
      <path id="DejaVuSans-78" d="M 3513 3500 
L 2247 1797 
L 3578 0 
L 2900 0 
L 1881 1375 
L 863 0 
L 184 0 
L 1544 1831 
L 300 3500 
L 978 3500 
L 1906 2253 
L 2834 3500 
L 3513 3500 
z
" transform="scale(0.015625)"/>
     </defs>
     <use xlink:href="#DejaVuSans-65"/>
     <use xlink:href="#DejaVuSans-78" transform="translate(59.773438 0)"/>
     <use xlink:href="#DejaVuSans-70" transform="translate(118.953125 0)"/>
     <use xlink:href="#DejaVuSans-65" transform="translate(182.429688 0)"/>
     <use xlink:href="#DejaVuSans-63" transform="translate(243.953125 0)"/>
     <use xlink:href="#DejaVuSans-74" transform="translate(298.933594 0)"/>
     <use xlink:href="#DejaVuSans-61" transform="translate(338.142578 0)"/>
     <use xlink:href="#DejaVuSans-74" transform="translate(399.421875 0)"/>
     <use xlink:href="#DejaVuSans-69" transform="translate(438.630859 0)"/>
     <use xlink:href="#DejaVuSans-6f" transform="translate(466.414062 0)"/>
     <use xlink:href="#DejaVuSans-6e" transform="translate(527.595703 0)"/>
    </g>
   </g>
   <g id="patch_8">
    <path d="M 66.778308 232.801778 
Q 211.300725 154.087829 355.823142 75.373881 
" style="fill: none; opacity: 0"/>
    <path d="M 351.353757 75.530722 
L 355.823142 75.373881 
L 353.266984 79.043493 
" style="fill: none; opacity: 0"/>
   </g>
   <g id="text_16">
    <!-- noise helps -->
    <g style="fill: #2b8a3e" transform="translate(171.362112 88.903554) scale(0.09 -0.09)">
     <defs>
      <path id="DejaVuSans-Oblique-6e" d="M 3566 2113 
L 3156 0 
L 2578 0 
L 2988 2091 
Q 3016 2238 3031 2350 
Q 3047 2463 3047 2528 
Q 3047 2791 2881 2937 
Q 2716 3084 2419 3084 
Q 1956 3084 1622 2776 
Q 1288 2469 1184 1941 
L 800 0 
L 225 0 
L 903 3500 
L 1478 3500 
L 1363 2950 
Q 1603 3253 1940 3418 
Q 2278 3584 2650 3584 
Q 3113 3584 3367 3334 
Q 3622 3084 3622 2631 
Q 3622 2519 3608 2391 
Q 3594 2263 3566 2113 
z
" transform="scale(0.015625)"/>
      <path id="DejaVuSans-Oblique-6f" d="M 1625 -91 
Q 1009 -91 651 289 
Q 294 669 294 1325 
Q 294 1706 417 2101 
Q 541 2497 738 2766 
Q 1047 3184 1428 3384 
Q 1809 3584 2291 3584 
Q 2888 3584 3255 3212 
Q 3622 2841 3622 2241 
Q 3622 1825 3500 1412 
Q 3378 1000 3181 728 
Q 2875 309 2494 109 
Q 2113 -91 1625 -91 
z
M 891 1344 
Q 891 869 1089 633 
Q 1288 397 1691 397 
Q 2269 397 2648 901 
Q 3028 1406 3028 2181 
Q 3028 2634 2825 2865 
Q 2622 3097 2228 3097 
Q 1903 3097 1650 2945 
Q 1397 2794 1197 2484 
Q 1050 2253 970 1956 
Q 891 1659 891 1344 
z
" transform="scale(0.015625)"/>
      <path id="DejaVuSans-Oblique-69" d="M 1172 4863 
L 1747 4863 
L 1606 4134 
L 1031 4134 
L 1172 4863 
z
M 909 3500 
L 1484 3500 
L 800 0 
L 225 0 
L 909 3500 
z
" transform="scale(0.015625)"/>
      <path id="DejaVuSans-Oblique-73" d="M 3200 3397 
L 3091 2853 
Q 2863 2978 2609 3040 
Q 2356 3103 2088 3103 
Q 1634 3103 1373 2948 
Q 1113 2794 1113 2528 
Q 1113 2219 1719 2053 
Q 1766 2041 1788 2034 
L 1972 1978 
Q 2547 1819 2739 1644 
Q 2931 1469 2931 1166 
Q 2931 609 2489 259 
Q 2047 -91 1331 -91 
Q 1053 -91 747 -37 
Q 441 16 72 128 
L 184 722 
Q 500 559 806 475 
Q 1113 391 1394 391 
Q 1816 391 2080 572 
Q 2344 753 2344 1031 
Q 2344 1331 1650 1516 
L 1591 1531 
L 1394 1581 
Q 956 1697 753 1886 
Q 550 2075 550 2369 
Q 550 2928 970 3256 
Q 1391 3584 2113 3584 
Q 2397 3584 2667 3537 
Q 2938 3491 3200 3397 
z
" transform="scale(0.015625)"/>
      <path id="DejaVuSans-Oblique-65" d="M 3078 2063 
Q 3088 2113 3092 2166 
Q 3097 2219 3097 2272 
Q 3097 2653 2873 2875 
Q 2650 3097 2266 3097 
Q 1838 3097 1509 2826 
Q 1181 2556 1013 2059 
L 3078 2063 
z
M 3578 1613 
L 903 1613 
Q 884 1494 878 1425 
Q 872 1356 872 1306 
Q 872 872 1139 634 
Q 1406 397 1894 397 
Q 2269 397 2603 481 
Q 2938 566 3225 728 
L 3116 159 
Q 2806 34 2476 -28 
Q 2147 -91 1806 -91 
Q 1078 -91 686 257 
Q 294 606 294 1247 
Q 294 1794 489 2264 
Q 684 2734 1063 3103 
Q 1306 3334 1642 3459 
Q 1978 3584 2356 3584 
Q 2950 3584 3301 3228 
Q 3653 2872 3653 2272 
Q 3653 2128 3634 1964 
Q 3616 1800 3578 1613 
z
" transform="scale(0.015625)"/>
      <path id="DejaVuSans-Oblique-20" transform="scale(0.015625)"/>
      <path id="DejaVuSans-Oblique-68" d="M 3566 2113 
L 3156 0 
L 2578 0 
L 2988 2091 
Q 3016 2238 3031 2350 
Q 3047 2463 3047 2528 
Q 3047 2791 2881 2937 
Q 2716 3084 2419 3084 
Q 1956 3084 1617 2771 
Q 1278 2459 1178 1941 
L 800 0 
L 225 0 
L 1172 4863 
L 1747 4863 
L 1375 2950 
Q 1594 3244 1934 3414 
Q 2275 3584 2650 3584 
Q 3113 3584 3367 3334 
Q 3622 3084 3622 2631 
Q 3622 2519 3608 2391 
Q 3594 2263 3566 2113 
z
" transform="scale(0.015625)"/>
      <path id="DejaVuSans-Oblique-6c" d="M 1172 4863 
L 1747 4863 
L 800 0 
L 225 0 
L 1172 4863 
z
" transform="scale(0.015625)"/>
      <path id="DejaVuSans-Oblique-70" d="M 3175 2156 
Q 3175 2616 2975 2859 
Q 2775 3103 2400 3103 
Q 2144 3103 1911 2972 
Q 1678 2841 1497 2591 
Q 1319 2344 1212 1994 
Q 1106 1644 1106 1300 
Q 1106 863 1306 627 
Q 1506 391 1875 391 
Q 2147 391 2380 519 
Q 2613 647 2778 891 
Q 2956 1147 3065 1494 
Q 3175 1841 3175 2156 
z
M 1394 2969 
Q 1625 3272 1939 3428 
Q 2253 3584 2638 3584 
Q 3175 3584 3472 3232 
Q 3769 2881 3769 2247 
Q 3769 1728 3584 1258 
Q 3400 788 3053 416 
Q 2822 169 2531 39 
Q 2241 -91 1919 -91 
Q 1547 -91 1294 64 
Q 1041 219 916 525 
L 556 -1331 
L -19 -1331 
L 922 3500 
L 1497 3500 
L 1394 2969 
z
" transform="scale(0.015625)"/>
     </defs>
     <use xlink:href="#DejaVuSans-Oblique-6e"/>
     <use xlink:href="#DejaVuSans-Oblique-6f" transform="translate(63.378906 0)"/>
     <use xlink:href="#DejaVuSans-Oblique-69" transform="translate(124.560547 0)"/>
     <use xlink:href="#DejaVuSans-Oblique-73" transform="translate(152.34375 0)"/>
     <use xlink:href="#DejaVuSans-Oblique-65" transform="translate(204.443359 0)"/>
     <use xlink:href="#DejaVuSans-Oblique-20" transform="translate(265.966797 0)"/>
     <use xlink:href="#DejaVuSans-Oblique-68" transform="translate(297.753906 0)"/>
     <use xlink:href="#DejaVuSans-Oblique-65" transform="translate(361.132812 0)"/>
     <use xlink:href="#DejaVuSans-Oblique-6c" transform="translate(422.65625 0)"/>
     <use xlink:href="#DejaVuSans-Oblique-70" transform="translate(450.439453 0)"/>
     <use xlink:href="#DejaVuSans-Oblique-73" transform="translate(513.916016 0)"/>
    </g>
   </g>
   <g id="text_17">
    <!-- FMO Complex: ENAQT -->
    <g transform="translate(155.084504 14.798437) scale(0.1 -0.1)">
     <defs>
      <path id="DejaVuSans-46" d="M 628 4666 
L 3309 4666 
L 3309 4134 
L 1259 4134 
L 1259 2759 
L 3109 2759 
L 3109 2228 
L 1259 2228 
L 1259 0 
L 628 0 
L 628 4666 
z
" transform="scale(0.015625)"/>
      <path id="DejaVuSans-4d" d="M 628 4666 
L 1569 4666 
L 2759 1491 
L 3956 4666 
L 4897 4666 
L 4897 0 
L 4281 0 
L 4281 4097 
L 3078 897 
L 2444 897 
L 1241 4097 
L 1241 0 
L 628 0 
L 628 4666 
z
" transform="scale(0.015625)"/>
      <path id="DejaVuSans-4f" d="M 2522 4238 
Q 1834 4238 1429 3725 
Q 1025 3213 1025 2328 
Q 1025 1447 1429 934 
Q 1834 422 2522 422 
Q 3209 422 3611 934 
Q 4013 1447 4013 2328 
Q 4013 3213 3611 3725 
Q 3209 4238 2522 4238 
z
M 2522 4750 
Q 3503 4750 4090 4092 
Q 4678 3434 4678 2328 
Q 4678 1225 4090 567 
Q 3503 -91 2522 -91 
Q 1538 -91 948 565 
Q 359 1222 359 2328 
Q 359 3434 948 4092 
Q 1538 4750 2522 4750 
z
" transform="scale(0.015625)"/>
      <path id="DejaVuSans-43" d="M 4122 4306 
L 4122 3641 
Q 3803 3938 3442 4084 
Q 3081 4231 2675 4231 
Q 1875 4231 1450 3742 
Q 1025 3253 1025 2328 
Q 1025 1406 1450 917 
Q 1875 428 2675 428 
Q 3081 428 3442 575 
Q 3803 722 4122 1019 
L 4122 359 
Q 3791 134 3420 21 
Q 3050 -91 2638 -91 
Q 1578 -91 968 557 
Q 359 1206 359 2328 
Q 359 3453 968 4101 
Q 1578 4750 2638 4750 
Q 3056 4750 3426 4639 
Q 3797 4528 4122 4306 
z
" transform="scale(0.015625)"/>
      <path id="DejaVuSans-3a" d="M 750 794 
L 1409 794 
L 1409 0 
L 750 0 
L 750 794 
z
M 750 3309 
L 1409 3309 
L 1409 2516 
L 750 2516 
L 750 3309 
z
" transform="scale(0.015625)"/>
      <path id="DejaVuSans-4e" d="M 628 4666 
L 1478 4666 
L 3547 763 
L 3547 4666 
L 4159 4666 
L 4159 0 
L 3309 0 
L 1241 3903 
L 1241 0 
L 628 0 
L 628 4666 
z
" transform="scale(0.015625)"/>
      <path id="DejaVuSans-41" d="M 2188 4044 
L 1331 1722 
L 3047 1722 
L 2188 4044 
z
M 1831 4666 
L 2547 4666 
L 4325 0 
L 3669 0 
L 3244 1197 
L 1141 1197 
L 716 0 
L 50 0 
L 1831 4666 
z
" transform="scale(0.015625)"/>
      <path id="DejaVuSans-51" d="M 2522 4238 
Q 1834 4238 1429 3725 
Q 1025 3213 1025 2328 
Q 1025 1447 1429 934 
Q 1834 422 2522 422 
Q 3209 422 3611 934 
Q 4013 1447 4013 2328 
Q 4013 3213 3611 3725 
Q 3209 4238 2522 4238 
z
M 3406 84 
L 4238 -825 
L 3475 -825 
L 2784 -78 
Q 2681 -84 2626 -87 
Q 2572 -91 2522 -91 
Q 1538 -91 948 567 
Q 359 1225 359 2328 
Q 359 3434 948 4092 
Q 1538 4750 2522 4750 
Q 3503 4750 4090 4092 
Q 4678 3434 4678 2328 
Q 4678 1516 4351 937 
Q 4025 359 3406 84 
z
" transform="scale(0.015625)"/>
     </defs>
     <use xlink:href="#DejaVuSans-46"/>
     <use xlink:href="#DejaVuSans-4d" transform="translate(57.519531 0)"/>
     <use xlink:href="#DejaVuSans-4f" transform="translate(143.798828 0)"/>
     <use xlink:href="#DejaVuSans-20" transform="translate(222.509766 0)"/>
     <use xlink:href="#DejaVuSans-43" transform="translate(254.296875 0)"/>
     <use xlink:href="#DejaVuSans-6f" transform="translate(324.121094 0)"/>
     <use xlink:href="#DejaVuSans-6d" transform="translate(385.302734 0)"/>
     <use xlink:href="#DejaVuSans-70" transform="translate(482.714844 0)"/>
     <use xlink:href="#DejaVuSans-6c" transform="translate(546.191406 0)"/>
     <use xlink:href="#DejaVuSans-65" transform="translate(573.974609 0)"/>
     <use xlink:href="#DejaVuSans-78" transform="translate(633.748047 0)"/>
     <use xlink:href="#DejaVuSans-3a" transform="translate(692.927734 0)"/>
     <use xlink:href="#DejaVuSans-20" transform="translate(726.619141 0)"/>
     <use xlink:href="#DejaVuSans-45" transform="translate(758.40625 0)"/>
     <use xlink:href="#DejaVuSans-4e" transform="translate(821.589844 0)"/>
     <use xlink:href="#DejaVuSans-41" transform="translate(896.394531 0)"/>
     <use xlink:href="#DejaVuSans-51" transform="translate(963.052734 0)"/>
     <use xlink:href="#DejaVuSans-54" transform="translate(1041.763672 0)"/>
    </g>
    <!-- (BChl-1 → BChl-3, reaction centre) -->
    <g transform="translate(125.052473 25.99625) scale(0.1 -0.1)">
     <defs>
      <path id="DejaVuSans-42" d="M 1259 2228 
L 1259 519 
L 2272 519 
Q 2781 519 3026 730 
Q 3272 941 3272 1375 
Q 3272 1813 3026 2020 
Q 2781 2228 2272 2228 
L 1259 2228 
z
M 1259 4147 
L 1259 2741 
L 2194 2741 
Q 2656 2741 2882 2914 
Q 3109 3088 3109 3444 
Q 3109 3797 2882 3972 
Q 2656 4147 2194 4147 
L 1259 4147 
z
M 628 4666 
L 2241 4666 
Q 2963 4666 3353 4366 
Q 3744 4066 3744 3513 
Q 3744 3084 3544 2831 
Q 3344 2578 2956 2516 
Q 3422 2416 3680 2098 
Q 3938 1781 3938 1306 
Q 3938 681 3513 340 
Q 3088 0 2303 0 
L 628 0 
L 628 4666 
z
" transform="scale(0.015625)"/>
      <path id="DejaVuSans-68" d="M 3513 2113 
L 3513 0 
L 2938 0 
L 2938 2094 
Q 2938 2591 2744 2837 
Q 2550 3084 2163 3084 
Q 1697 3084 1428 2787 
Q 1159 2491 1159 1978 
L 1159 0 
L 581 0 
L 581 4863 
L 1159 4863 
L 1159 2956 
Q 1366 3272 1645 3428 
Q 1925 3584 2291 3584 
Q 2894 3584 3203 3211 
Q 3513 2838 3513 2113 
z
" transform="scale(0.015625)"/>
      <path id="DejaVuSans-2d" d="M 313 2009 
L 1997 2009 
L 1997 1497 
L 313 1497 
L 313 2009 
z
" transform="scale(0.015625)"/>
      <path id="DejaVuSans-2192" d="M 5050 2147 
L 5050 1866 
L 3822 638 
L 3447 1013 
L 4175 1741 
L 366 1741 
L 366 2272 
L 4175 2272 
L 3447 3000 
L 3822 3375 
L 5050 2147 
z
" transform="scale(0.015625)"/>
      <path id="DejaVuSans-2c" d="M 750 794 
L 1409 794 
L 1409 256 
L 897 -744 
L 494 -744 
L 750 256 
L 750 794 
z
" transform="scale(0.015625)"/>
     </defs>
     <use xlink:href="#DejaVuSans-28"/>
     <use xlink:href="#DejaVuSans-42" transform="translate(39.013672 0)"/>
     <use xlink:href="#DejaVuSans-43" transform="translate(105.867188 0)"/>
     <use xlink:href="#DejaVuSans-68" transform="translate(175.691406 0)"/>
     <use xlink:href="#DejaVuSans-6c" transform="translate(239.070312 0)"/>
     <use xlink:href="#DejaVuSans-2d" transform="translate(266.853516 0)"/>
     <use xlink:href="#DejaVuSans-31" transform="translate(302.9375 0)"/>
     <use xlink:href="#DejaVuSans-20" transform="translate(366.560547 0)"/>
     <use xlink:href="#DejaVuSans-2192" transform="translate(398.347656 0)"/>
     <use xlink:href="#DejaVuSans-20" transform="translate(482.136719 0)"/>
     <use xlink:href="#DejaVuSans-42" transform="translate(513.923828 0)"/>
     <use xlink:href="#DejaVuSans-43" transform="translate(580.777344 0)"/>
     <use xlink:href="#DejaVuSans-68" transform="translate(650.601562 0)"/>
     <use xlink:href="#DejaVuSans-6c" transform="translate(713.980469 0)"/>
     <use xlink:href="#DejaVuSans-2d" transform="translate(741.763672 0)"/>
     <use xlink:href="#DejaVuSans-33" transform="translate(777.847656 0)"/>
     <use xlink:href="#DejaVuSans-2c" transform="translate(841.470703 0)"/>
     <use xlink:href="#DejaVuSans-20" transform="translate(873.257812 0)"/>
     <use xlink:href="#DejaVuSans-72" transform="translate(905.044922 0)"/>
     <use xlink:href="#DejaVuSans-65" transform="translate(943.908203 0)"/>
     <use xlink:href="#DejaVuSans-61" transform="translate(1005.431641 0)"/>
     <use xlink:href="#DejaVuSans-63" transform="translate(1066.710938 0)"/>
     <use xlink:href="#DejaVuSans-74" transform="translate(1121.691406 0)"/>
     <use xlink:href="#DejaVuSans-69" transform="translate(1160.900391 0)"/>
     <use xlink:href="#DejaVuSans-6f" transform="translate(1188.683594 0)"/>
     <use xlink:href="#DejaVuSans-6e" transform="translate(1249.865234 0)"/>
     <use xlink:href="#DejaVuSans-20" transform="translate(1313.244141 0)"/>
     <use xlink:href="#DejaVuSans-63" transform="translate(1345.03125 0)"/>
     <use xlink:href="#DejaVuSans-65" transform="translate(1400.011719 0)"/>
     <use xlink:href="#DejaVuSans-6e" transform="translate(1461.535156 0)"/>
     <use xlink:href="#DejaVuSans-74" transform="translate(1524.914062 0)"/>
     <use xlink:href="#DejaVuSans-72" transform="translate(1564.123047 0)"/>
     <use xlink:href="#DejaVuSans-65" transform="translate(1602.986328 0)"/>
     <use xlink:href="#DejaVuSans-29" transform="translate(1664.509766 0)"/>
    </g>
   </g>
  </g>
  <g id="axes_2">
   <g id="patch_9">
    <path d="M 428.733852 269.97225 
L 755.582547 269.97225 
L 755.582547 31.99625 
L 428.733852 31.99625 
z
" style="fill: #fafafa"/>
   </g>
   <g id="FillBetweenPolyCollection_2">
    <defs>
     <path id="m50ae6b23a3" d="M 438.253717 -53.733386 
L 438.253717 -47.889291 
L 439.688872 -47.889291 
L 441.124028 -47.889291 
L 442.559183 -47.889291 
L 443.994339 -47.889291 
L 445.429494 -47.889291 
L 446.86465 -47.889291 
L 448.299805 -47.889291 
L 449.734961 -47.889291 
L 451.170116 -47.889291 
L 452.605272 -47.889291 
L 454.040427 -47.889291 
L 455.475583 -47.889291 
L 456.910738 -47.889291 
L 458.345894 -47.889291 
L 459.781049 -47.889291 
L 461.216205 -47.889291 
L 462.65136 -47.889291 
L 464.086516 -47.889291 
L 465.521671 -47.889291 
L 466.956827 -47.889291 
L 468.391982 -47.889291 
L 469.827138 -47.889291 
L 471.262293 -47.889291 
L 472.697449 -47.889291 
L 474.132604 -47.889291 
L 475.56776 -47.889291 
L 477.002915 -47.889291 
L 478.438071 -47.889291 
L 479.873226 -47.889291 
L 481.308382 -47.889291 
L 482.743538 -47.889291 
L 484.178693 -47.889291 
L 485.613849 -47.889291 
L 487.049004 -47.889291 
L 488.48416 -47.889291 
L 489.919315 -47.889291 
L 491.354471 -47.889291 
L 492.789626 -47.889291 
L 494.224782 -47.889291 
L 495.659937 -47.889291 
L 497.095093 -47.889291 
L 498.530248 -47.889291 
L 499.965404 -47.889291 
L 501.400559 -47.889291 
L 502.835715 -47.889291 
L 504.27087 -47.889291 
L 505.706026 -47.889291 
L 507.141181 -47.889291 
L 508.576337 -47.889291 
L 510.011492 -47.889291 
L 511.446648 -47.889291 
L 512.881803 -47.889291 
L 514.316959 -47.889291 
L 515.752114 -47.889291 
L 517.18727 -47.889291 
L 518.622425 -47.889291 
L 520.057581 -47.889291 
L 521.492736 -47.889291 
L 522.927892 -47.889291 
L 524.363047 -47.889291 
L 525.798203 -47.889291 
L 527.233358 -47.889291 
L 528.668514 -47.889291 
L 530.103669 -47.889291 
L 531.538825 -47.889291 
L 532.973981 -47.889291 
L 534.409136 -47.889291 
L 535.844292 -47.889291 
L 537.279447 -47.889291 
L 538.714603 -47.889291 
L 540.149758 -47.889291 
L 541.584914 -47.889291 
L 543.020069 -47.889291 
L 544.455225 -47.889291 
L 545.89038 -47.889291 
L 547.325536 -47.889291 
L 548.760691 -47.889291 
L 550.195847 -47.889291 
L 551.631002 -47.889291 
L 553.066158 -47.889291 
L 554.501313 -47.889291 
L 555.936469 -47.889291 
L 557.371624 -47.889291 
L 558.80678 -47.889291 
L 560.241935 -47.889291 
L 561.677091 -47.889291 
L 563.112246 -47.889291 
L 564.547402 -47.889291 
L 565.982557 -47.889291 
L 567.417713 -47.889291 
L 568.852868 -47.889291 
L 570.288024 -47.889291 
L 571.723179 -47.889291 
L 573.158335 -47.889291 
L 574.59349 -47.889291 
L 576.028646 -47.889291 
L 577.463801 -47.889291 
L 578.898957 -47.889291 
L 580.334113 -47.889291 
L 581.769268 -47.889291 
L 583.204424 -47.889291 
L 584.639579 -47.889291 
L 586.074735 -47.889291 
L 587.50989 -47.889291 
L 588.945046 -47.889291 
L 590.380201 -47.889291 
L 591.815357 -47.889291 
L 593.250512 -47.889291 
L 594.685668 -47.889291 
L 596.120823 -47.889291 
L 597.555979 -47.889291 
L 598.991134 -47.889291 
L 600.42629 -47.889291 
L 601.861445 -47.889291 
L 603.296601 -47.889291 
L 604.731756 -47.889291 
L 606.166912 -47.889291 
L 607.602067 -47.889291 
L 609.037223 -47.889291 
L 610.472378 -47.889291 
L 611.907534 -47.889291 
L 613.342689 -47.889291 
L 614.777845 -47.889291 
L 616.213 -47.889291 
L 617.648156 -47.889291 
L 619.083311 -47.889291 
L 620.518467 -47.889291 
L 621.953622 -47.889291 
L 623.388778 -47.889291 
L 624.823933 -47.889291 
L 626.259089 -47.889291 
L 627.694244 -47.889291 
L 629.1294 -47.889291 
L 630.564556 -47.889291 
L 631.999711 -47.889291 
L 633.434867 -47.889291 
L 634.870022 -47.889291 
L 636.305178 -47.889291 
L 637.740333 -47.889291 
L 639.175489 -47.889291 
L 640.610644 -47.889291 
L 642.0458 -47.889291 
L 643.480955 -47.889291 
L 644.916111 -47.889291 
L 646.351266 -47.889291 
L 647.786422 -47.889291 
L 649.221577 -47.889291 
L 650.656733 -47.889291 
L 652.091888 -47.889291 
L 653.527044 -47.889291 
L 654.962199 -47.889291 
L 656.397355 -47.889291 
L 657.83251 -47.889291 
L 659.267666 -47.889291 
L 660.702821 -47.889291 
L 662.137977 -47.889291 
L 663.573132 -47.889291 
L 665.008288 -47.889291 
L 666.443443 -47.889291 
L 667.878599 -47.889291 
L 669.313754 -47.889291 
L 670.74891 -47.889291 
L 672.184065 -47.889291 
L 673.619221 -47.889291 
L 675.054376 -47.889291 
L 676.489532 -47.889291 
L 677.924688 -47.889291 
L 679.359843 -47.889291 
L 680.794999 -47.889291 
L 682.230154 -47.889291 
L 683.66531 -47.889291 
L 685.100465 -47.889291 
L 686.535621 -47.889291 
L 687.970776 -47.889291 
L 689.405932 -47.889291 
L 690.841087 -47.889291 
L 692.276243 -47.889291 
L 693.711398 -47.889291 
L 695.146554 -47.889291 
L 696.581709 -47.889291 
L 698.016865 -47.889291 
L 699.45202 -47.889291 
L 700.887176 -47.889291 
L 702.322331 -47.889291 
L 703.757487 -47.889291 
L 705.192642 -47.889291 
L 706.627798 -47.889291 
L 708.062953 -47.889291 
L 709.498109 -47.889291 
L 710.933264 -47.889291 
L 712.36842 -47.889291 
L 713.803575 -47.889291 
L 715.238731 -47.889291 
L 716.673886 -47.889291 
L 718.109042 -47.889291 
L 719.544197 -47.889291 
L 720.979353 -47.889291 
L 722.414508 -47.889291 
L 723.849664 -47.889291 
L 723.849664 -251.848406 
L 723.849664 -251.848406 
L 722.414508 -245.776431 
L 720.979353 -239.704455 
L 719.544197 -233.63248 
L 718.109042 -227.560504 
L 716.673886 -221.488528 
L 715.238731 -215.416553 
L 713.803575 -209.344577 
L 712.36842 -203.272602 
L 710.933264 -197.200626 
L 709.498109 -191.12865 
L 708.062953 -185.056675 
L 706.627798 -178.984699 
L 705.192642 -172.912724 
L 703.757487 -166.840748 
L 702.322331 -160.768773 
L 700.887176 -154.696797 
L 699.45202 -148.624821 
L 698.016865 -142.552846 
L 696.581709 -136.48087 
L 695.146554 -130.408895 
L 693.711398 -124.336919 
L 692.276243 -118.264944 
L 690.841087 -112.192968 
L 689.405932 -106.120992 
L 687.970776 -100.049017 
L 686.535621 -93.977041 
L 685.100465 -87.905066 
L 683.66531 -81.83309 
L 682.230154 -75.761114 
L 680.794999 -69.689139 
L 679.359843 -63.617163 
L 677.924688 -57.545188 
L 676.489532 -51.473212 
L 675.054376 -50.603225 
L 673.619221 -50.773634 
L 672.184065 -50.944044 
L 670.74891 -51.114454 
L 669.313754 -51.284864 
L 667.878599 -51.455274 
L 666.443443 -51.625684 
L 665.008288 -51.796094 
L 663.573132 -51.966504 
L 662.137977 -52.136914 
L 660.702821 -52.307324 
L 659.267666 -52.477734 
L 657.83251 -52.648144 
L 656.397355 -52.818554 
L 654.962199 -52.988964 
L 653.527044 -53.159374 
L 652.091888 -53.329784 
L 650.656733 -53.500194 
L 649.221577 -53.670604 
L 647.786422 -53.841014 
L 646.351266 -54.011424 
L 644.916111 -54.181833 
L 643.480955 -54.352243 
L 642.0458 -54.522653 
L 640.610644 -54.693063 
L 639.175489 -54.863473 
L 637.740333 -55.033883 
L 636.305178 -55.204293 
L 634.870022 -55.374703 
L 633.434867 -55.545113 
L 631.999711 -55.715523 
L 630.564556 -55.885933 
L 629.1294 -56.056343 
L 627.694244 -56.113146 
L 626.259089 -56.113146 
L 624.823933 -56.113146 
L 623.388778 -56.113146 
L 621.953622 -56.113146 
L 620.518467 -56.113146 
L 619.083311 -56.113146 
L 617.648156 -56.113146 
L 616.213 -56.113146 
L 614.777845 -56.113146 
L 613.342689 -56.113146 
L 611.907534 -56.113146 
L 610.472378 -56.113146 
L 609.037223 -56.113146 
L 607.602067 -56.113146 
L 606.166912 -56.113146 
L 604.731756 -56.113146 
L 603.296601 -56.113146 
L 601.861445 -56.113146 
L 600.42629 -56.113146 
L 598.991134 -56.113146 
L 597.555979 -56.113146 
L 596.120823 -56.113146 
L 594.685668 -56.113146 
L 593.250512 -56.113146 
L 591.815357 -56.113146 
L 590.380201 -56.113146 
L 588.945046 -56.113146 
L 587.50989 -56.113146 
L 586.074735 -56.113146 
L 584.639579 -56.113146 
L 583.204424 -56.113146 
L 581.769268 -56.113146 
L 580.334113 -56.079513 
L 578.898957 -56.012246 
L 577.463801 -55.944979 
L 576.028646 -55.877711 
L 574.59349 -55.810444 
L 573.158335 -55.743177 
L 571.723179 -55.67591 
L 570.288024 -55.608643 
L 568.852868 -55.541376 
L 567.417713 -55.474109 
L 565.982557 -55.406842 
L 564.547402 -55.339575 
L 563.112246 -55.272308 
L 561.677091 -55.205041 
L 560.241935 -55.137774 
L 558.80678 -55.070506 
L 557.371624 -55.003239 
L 555.936469 -54.935972 
L 554.501313 -54.868705 
L 553.066158 -54.801438 
L 551.631002 -54.734171 
L 550.195847 -54.666904 
L 548.760691 -54.599637 
L 547.325536 -54.53237 
L 545.89038 -54.465103 
L 544.455225 -54.397836 
L 543.020069 -54.330568 
L 541.584914 -54.263301 
L 540.149758 -54.196034 
L 538.714603 -54.128767 
L 537.279447 -54.0615 
L 535.844292 -53.994233 
L 534.409136 -53.926966 
L 532.973981 -53.898564 
L 531.538825 -53.947894 
L 530.103669 -53.997223 
L 528.668514 -54.046552 
L 527.233358 -54.095881 
L 525.798203 -54.14521 
L 524.363047 -54.194539 
L 522.927892 -54.243869 
L 521.492736 -54.293198 
L 520.057581 -54.342527 
L 518.622425 -54.391856 
L 517.18727 -54.441185 
L 515.752114 -54.490515 
L 514.316959 -54.539844 
L 512.881803 -54.589173 
L 511.446648 -54.638502 
L 510.011492 -54.687831 
L 508.576337 -54.737161 
L 507.141181 -54.78649 
L 505.706026 -54.835819 
L 504.27087 -54.885148 
L 502.835715 -54.934477 
L 501.400559 -54.983807 
L 499.965404 -55.033136 
L 498.530248 -55.082465 
L 497.095093 -55.131794 
L 495.659937 -55.181123 
L 494.224782 -55.230453 
L 492.789626 -55.279782 
L 491.354471 -55.329111 
L 489.919315 -55.37844 
L 488.48416 -55.427769 
L 487.049004 -55.477099 
L 485.613849 -55.509237 
L 484.178693 -55.455424 
L 482.743538 -55.40161 
L 481.308382 -55.347796 
L 479.873226 -55.293983 
L 478.438071 -55.240169 
L 477.002915 -55.186355 
L 475.56776 -55.132542 
L 474.132604 -55.078728 
L 472.697449 -55.024914 
L 471.262293 -54.971101 
L 469.827138 -54.917287 
L 468.391982 -54.863473 
L 466.956827 -54.80966 
L 465.521671 -54.755846 
L 464.086516 -54.702032 
L 462.65136 -54.648219 
L 461.216205 -54.594405 
L 459.781049 -54.540591 
L 458.345894 -54.486778 
L 456.910738 -54.432964 
L 455.475583 -54.37915 
L 454.040427 -54.325337 
L 452.605272 -54.271523 
L 451.170116 -54.217709 
L 449.734961 -54.163896 
L 448.299805 -54.110082 
L 446.86465 -54.056268 
L 445.429494 -54.002455 
L 443.994339 -53.948641 
L 442.559183 -53.894827 
L 441.124028 -53.841014 
L 439.688872 -53.7872 
L 438.253717 -53.733386 
z
" style="stroke: #7048e8; stroke-opacity: 0.1"/>
    </defs>
    <g clip-path="url(#pb40daeccbd)">
     <use xlink:href="#m50ae6b23a3" x="0" y="306.154906" style="fill: #7048e8; fill-opacity: 0.1; stroke: #7048e8; stroke-opacity: 0.1"/>
    </g>
   </g>
   <g id="matplotlib.axis_3">
    <g id="xtick_7">
     <g id="line2d_25">
      <path d="M 438.253717 269.97225 
L 438.253717 31.99625 
" clip-path="url(#pb40daeccbd)" style="fill: none; stroke: #b0b0b0; stroke-opacity: 0.3; stroke-width: 0.5; stroke-linecap: square"/>
     </g>
     <g id="line2d_26">
      <g>
       <use xlink:href="#m8a13567a38" x="438.253717" y="269.97225" style="stroke: #000000; stroke-width: 0.8"/>
      </g>
     </g>
     <g id="text_18">
      <!-- 0° -->
      <g transform="translate(433.424654 283.430922) scale(0.085 -0.085)">
       <defs>
        <path id="DejaVuSans-b0" d="M 1600 4347 
Q 1350 4347 1178 4173 
Q 1006 4000 1006 3750 
Q 1006 3503 1178 3333 
Q 1350 3163 1600 3163 
Q 1850 3163 2022 3333 
Q 2194 3503 2194 3750 
Q 2194 3997 2020 4172 
Q 1847 4347 1600 4347 
z
M 1600 4750 
Q 1800 4750 1984 4673 
Q 2169 4597 2303 4453 
Q 2447 4313 2519 4134 
Q 2591 3956 2591 3750 
Q 2591 3338 2302 3052 
Q 2013 2766 1594 2766 
Q 1172 2766 890 3047 
Q 609 3328 609 3750 
Q 609 4169 896 4459 
Q 1184 4750 1600 4750 
z
" transform="scale(0.015625)"/>
       </defs>
       <use xlink:href="#DejaVuSans-30"/>
       <use xlink:href="#DejaVuSans-b0" transform="translate(63.623047 0)"/>
      </g>
     </g>
    </g>
    <g id="xtick_8">
     <g id="line2d_27">
      <path d="M 485.853041 269.97225 
L 485.853041 31.99625 
" clip-path="url(#pb40daeccbd)" style="fill: none; stroke: #b0b0b0; stroke-opacity: 0.3; stroke-width: 0.5; stroke-linecap: square"/>
     </g>
     <g id="line2d_28">
      <g>
       <use xlink:href="#m8a13567a38" x="485.853041" y="269.97225" style="stroke: #000000; stroke-width: 0.8"/>
      </g>
     </g>
     <g id="text_19">
      <!-- 15° -->
      <g transform="translate(478.319916 283.430922) scale(0.085 -0.085)">
       <use xlink:href="#DejaVuSans-31"/>
       <use xlink:href="#DejaVuSans-35" transform="translate(63.623047 0)"/>
       <use xlink:href="#DejaVuSans-b0" transform="translate(127.246094 0)"/>
      </g>
     </g>
    </g>
    <g id="xtick_9">
     <g id="line2d_29">
      <path d="M 533.452366 269.97225 
L 533.452366 31.99625 
" clip-path="url(#pb40daeccbd)" style="fill: none; stroke: #b0b0b0; stroke-opacity: 0.3; stroke-width: 0.5; stroke-linecap: square"/>
     </g>
     <g id="line2d_30">
      <g>
       <use xlink:href="#m8a13567a38" x="533.452366" y="269.97225" style="stroke: #000000; stroke-width: 0.8"/>
      </g>
     </g>
     <g id="text_20">
      <!-- 30° -->
      <g transform="translate(525.919241 283.430922) scale(0.085 -0.085)">
       <use xlink:href="#DejaVuSans-33"/>
       <use xlink:href="#DejaVuSans-30" transform="translate(63.623047 0)"/>
       <use xlink:href="#DejaVuSans-b0" transform="translate(127.246094 0)"/>
      </g>
     </g>
    </g>
    <g id="xtick_10">
     <g id="line2d_31">
      <path d="M 581.05169 269.97225 
L 581.05169 31.99625 
" clip-path="url(#pb40daeccbd)" style="fill: none; stroke: #b0b0b0; stroke-opacity: 0.3; stroke-width: 0.5; stroke-linecap: square"/>
     </g>
     <g id="line2d_32">
      <g>
       <use xlink:href="#m8a13567a38" x="581.05169" y="269.97225" style="stroke: #000000; stroke-width: 0.8"/>
      </g>
     </g>
     <g id="text_21">
      <!-- 45° -->
      <g transform="translate(573.518565 283.430922) scale(0.085 -0.085)">
       <defs>
        <path id="DejaVuSans-34" d="M 2419 4116 
L 825 1625 
L 2419 1625 
L 2419 4116 
z
M 2253 4666 
L 3047 4666 
L 3047 1625 
L 3713 1625 
L 3713 1100 
L 3047 1100 
L 3047 0 
L 2419 0 
L 2419 1100 
L 313 1100 
L 313 1709 
L 2253 4666 
z
" transform="scale(0.015625)"/>
       </defs>
       <use xlink:href="#DejaVuSans-34"/>
       <use xlink:href="#DejaVuSans-35" transform="translate(63.623047 0)"/>
       <use xlink:href="#DejaVuSans-b0" transform="translate(127.246094 0)"/>
      </g>
     </g>
    </g>
    <g id="xtick_11">
     <g id="line2d_33">
      <path d="M 628.651015 269.97225 
L 628.651015 31.99625 
" clip-path="url(#pb40daeccbd)" style="fill: none; stroke: #b0b0b0; stroke-opacity: 0.3; stroke-width: 0.5; stroke-linecap: square"/>
     </g>
     <g id="line2d_34">
      <g>
       <use xlink:href="#m8a13567a38" x="628.651015" y="269.97225" style="stroke: #000000; stroke-width: 0.8"/>
      </g>
     </g>
     <g id="text_22">
      <!-- 60° -->
      <g transform="translate(621.11789 283.430922) scale(0.085 -0.085)">
       <defs>
        <path id="DejaVuSans-36" d="M 2113 2584 
Q 1688 2584 1439 2293 
Q 1191 2003 1191 1497 
Q 1191 994 1439 701 
Q 1688 409 2113 409 
Q 2538 409 2786 701 
Q 3034 994 3034 1497 
Q 3034 2003 2786 2293 
Q 2538 2584 2113 2584 
z
M 3366 4563 
L 3366 3988 
Q 3128 4100 2886 4159 
Q 2644 4219 2406 4219 
Q 1781 4219 1451 3797 
Q 1122 3375 1075 2522 
Q 1259 2794 1537 2939 
Q 1816 3084 2150 3084 
Q 2853 3084 3261 2657 
Q 3669 2231 3669 1497 
Q 3669 778 3244 343 
Q 2819 -91 2113 -91 
Q 1303 -91 875 529 
Q 447 1150 447 2328 
Q 447 3434 972 4092 
Q 1497 4750 2381 4750 
Q 2619 4750 2861 4703 
Q 3103 4656 3366 4563 
z
" transform="scale(0.015625)"/>
       </defs>
       <use xlink:href="#DejaVuSans-36"/>
       <use xlink:href="#DejaVuSans-30" transform="translate(63.623047 0)"/>
       <use xlink:href="#DejaVuSans-b0" transform="translate(127.246094 0)"/>
      </g>
     </g>
    </g>
    <g id="xtick_12">
     <g id="line2d_35">
      <path d="M 676.250339 269.97225 
L 676.250339 31.99625 
" clip-path="url(#pb40daeccbd)" style="fill: none; stroke: #b0b0b0; stroke-opacity: 0.3; stroke-width: 0.5; stroke-linecap: square"/>
     </g>
     <g id="line2d_36">
      <g>
       <use xlink:href="#m8a13567a38" x="676.250339" y="269.97225" style="stroke: #000000; stroke-width: 0.8"/>
      </g>
     </g>
     <g id="text_23">
      <!-- 75° -->
      <g transform="translate(668.717214 283.430922) scale(0.085 -0.085)">
       <use xlink:href="#DejaVuSans-37"/>
       <use xlink:href="#DejaVuSans-35" transform="translate(63.623047 0)"/>
       <use xlink:href="#DejaVuSans-b0" transform="translate(127.246094 0)"/>
      </g>
     </g>
    </g>
    <g id="xtick_13">
     <g id="line2d_37">
      <path d="M 723.849664 269.97225 
L 723.849664 31.99625 
" clip-path="url(#pb40daeccbd)" style="fill: none; stroke: #b0b0b0; stroke-opacity: 0.3; stroke-width: 0.5; stroke-linecap: square"/>
     </g>
     <g id="line2d_38">
      <g>
       <use xlink:href="#m8a13567a38" x="723.849664" y="269.97225" style="stroke: #000000; stroke-width: 0.8"/>
      </g>
     </g>
     <g id="text_24">
      <!-- 90° -->
      <g transform="translate(716.316539 283.430922) scale(0.085 -0.085)">
       <defs>
        <path id="DejaVuSans-39" d="M 703 97 
L 703 672 
Q 941 559 1184 500 
Q 1428 441 1663 441 
Q 2288 441 2617 861 
Q 2947 1281 2994 2138 
Q 2813 1869 2534 1725 
Q 2256 1581 1919 1581 
Q 1219 1581 811 2004 
Q 403 2428 403 3163 
Q 403 3881 828 4315 
Q 1253 4750 1959 4750 
Q 2769 4750 3195 4129 
Q 3622 3509 3622 2328 
Q 3622 1225 3098 567 
Q 2575 -91 1691 -91 
Q 1453 -91 1209 -44 
Q 966 3 703 97 
z
M 1959 2075 
Q 2384 2075 2632 2365 
Q 2881 2656 2881 3163 
Q 2881 3666 2632 3958 
Q 2384 4250 1959 4250 
Q 1534 4250 1286 3958 
Q 1038 3666 1038 3163 
Q 1038 2656 1286 2365 
Q 1534 2075 1959 2075 
z
" transform="scale(0.015625)"/>
       </defs>
       <use xlink:href="#DejaVuSans-39"/>
       <use xlink:href="#DejaVuSans-30" transform="translate(63.623047 0)"/>
       <use xlink:href="#DejaVuSans-b0" transform="translate(127.246094 0)"/>
      </g>
     </g>
    </g>
    <g id="text_25">
     <!-- Field inclination angle θ (°) -->
     <g transform="translate(525.030856 296.875219) scale(0.1 -0.1)">
      <defs>
       <path id="DejaVuSans-64" d="M 2906 2969 
L 2906 4863 
L 3481 4863 
L 3481 0 
L 2906 0 
L 2906 525 
Q 2725 213 2448 61 
Q 2172 -91 1784 -91 
Q 1150 -91 751 415 
Q 353 922 353 1747 
Q 353 2572 751 3078 
Q 1150 3584 1784 3584 
Q 2172 3584 2448 3432 
Q 2725 3281 2906 2969 
z
M 947 1747 
Q 947 1113 1208 752 
Q 1469 391 1925 391 
Q 2381 391 2643 752 
Q 2906 1113 2906 1747 
Q 2906 2381 2643 2742 
Q 2381 3103 1925 3103 
Q 1469 3103 1208 2742 
Q 947 2381 947 1747 
z
" transform="scale(0.015625)"/>
       <path id="DejaVuSans-3b8" d="M 2953 2219 
L 963 2219 
Q 1009 1284 1225 888 
Q 1494 400 1959 400 
Q 2428 400 2688 891 
Q 2916 1322 2953 2219 
z
M 2944 2750 
Q 2856 3638 2688 3950 
Q 2419 4444 1959 4444 
Q 1481 4444 1228 3956 
Q 1028 3563 969 2750 
L 2944 2750 
z
M 1959 4913 
Q 2709 4913 3138 4250 
Q 3566 3591 3566 2422 
Q 3566 1256 3138 594 
Q 2709 -72 1959 -72 
Q 1206 -72 781 594 
Q 353 1256 353 2422 
Q 353 3591 781 4250 
Q 1206 4913 1959 4913 
z
" transform="scale(0.015625)"/>
      </defs>
      <use xlink:href="#DejaVuSans-46"/>
      <use xlink:href="#DejaVuSans-69" transform="translate(50.269531 0)"/>
      <use xlink:href="#DejaVuSans-65" transform="translate(78.052734 0)"/>
      <use xlink:href="#DejaVuSans-6c" transform="translate(139.576172 0)"/>
      <use xlink:href="#DejaVuSans-64" transform="translate(167.359375 0)"/>
      <use xlink:href="#DejaVuSans-20" transform="translate(230.835938 0)"/>
      <use xlink:href="#DejaVuSans-69" transform="translate(262.623047 0)"/>
      <use xlink:href="#DejaVuSans-6e" transform="translate(290.40625 0)"/>
      <use xlink:href="#DejaVuSans-63" transform="translate(353.785156 0)"/>
      <use xlink:href="#DejaVuSans-6c" transform="translate(408.765625 0)"/>
      <use xlink:href="#DejaVuSans-69" transform="translate(436.548828 0)"/>
      <use xlink:href="#DejaVuSans-6e" transform="translate(464.332031 0)"/>
      <use xlink:href="#DejaVuSans-61" transform="translate(527.710938 0)"/>
      <use xlink:href="#DejaVuSans-74" transform="translate(588.990234 0)"/>
      <use xlink:href="#DejaVuSans-69" transform="translate(628.199219 0)"/>
      <use xlink:href="#DejaVuSans-6f" transform="translate(655.982422 0)"/>
      <use xlink:href="#DejaVuSans-6e" transform="translate(717.164062 0)"/>
      <use xlink:href="#DejaVuSans-20" transform="translate(780.542969 0)"/>
      <use xlink:href="#DejaVuSans-61" transform="translate(812.330078 0)"/>
      <use xlink:href="#DejaVuSans-6e" transform="translate(873.609375 0)"/>
      <use xlink:href="#DejaVuSans-67" transform="translate(936.988281 0)"/>
      <use xlink:href="#DejaVuSans-6c" transform="translate(1000.464844 0)"/>
      <use xlink:href="#DejaVuSans-65" transform="translate(1028.248047 0)"/>
      <use xlink:href="#DejaVuSans-20" transform="translate(1089.771484 0)"/>
      <use xlink:href="#DejaVuSans-3b8" transform="translate(1121.558594 0)"/>
      <use xlink:href="#DejaVuSans-20" transform="translate(1182.740234 0)"/>
      <use xlink:href="#DejaVuSans-28" transform="translate(1214.527344 0)"/>
      <use xlink:href="#DejaVuSans-b0" transform="translate(1253.541016 0)"/>
      <use xlink:href="#DejaVuSans-29" transform="translate(1303.541016 0)"/>
     </g>
    </g>
   </g>
   <g id="matplotlib.axis_4">
    <g id="ytick_6">
     <g id="line2d_39">
      <path d="M 428.733852 262.5355 
L 755.582547 262.5355 
" clip-path="url(#pb40daeccbd)" style="fill: none; stroke: #b0b0b0; stroke-opacity: 0.3; stroke-width: 0.5; stroke-linecap: square"/>
     </g>
     <g id="line2d_40">
      <g>
       <use xlink:href="#mf2ac5baa58" x="428.733852" y="262.5355" style="stroke: #000000; stroke-width: 0.8"/>
      </g>
     </g>
     <g id="text_26">
      <!-- 0.86 -->
      <g transform="translate(402.80807 265.764836) scale(0.085 -0.085)">
       <defs>
        <path id="DejaVuSans-38" d="M 2034 2216 
Q 1584 2216 1326 1975 
Q 1069 1734 1069 1313 
Q 1069 891 1326 650 
Q 1584 409 2034 409 
Q 2484 409 2743 651 
Q 3003 894 3003 1313 
Q 3003 1734 2745 1975 
Q 2488 2216 2034 2216 
z
M 1403 2484 
Q 997 2584 770 2862 
Q 544 3141 544 3541 
Q 544 4100 942 4425 
Q 1341 4750 2034 4750 
Q 2731 4750 3128 4425 
Q 3525 4100 3525 3541 
Q 3525 3141 3298 2862 
Q 3072 2584 2669 2484 
Q 3125 2378 3379 2068 
Q 3634 1759 3634 1313 
Q 3634 634 3220 271 
Q 2806 -91 2034 -91 
Q 1263 -91 848 271 
Q 434 634 434 1313 
Q 434 1759 690 2068 
Q 947 2378 1403 2484 
z
M 1172 3481 
Q 1172 3119 1398 2916 
Q 1625 2713 2034 2713 
Q 2441 2713 2670 2916 
Q 2900 3119 2900 3481 
Q 2900 3844 2670 4047 
Q 2441 4250 2034 4250 
Q 1625 4250 1398 4047 
Q 1172 3844 1172 3481 
z
" transform="scale(0.015625)"/>
       </defs>
       <use xlink:href="#DejaVuSans-30"/>
       <use xlink:href="#DejaVuSans-2e" transform="translate(63.623047 0)"/>
       <use xlink:href="#DejaVuSans-38" transform="translate(95.410156 0)"/>
       <use xlink:href="#DejaVuSans-36" transform="translate(159.033203 0)"/>
      </g>
     </g>
    </g>
    <g id="ytick_7">
     <g id="line2d_41">
      <path d="M 428.733852 232.7885 
L 755.582547 232.7885 
" clip-path="url(#pb40daeccbd)" style="fill: none; stroke: #b0b0b0; stroke-opacity: 0.3; stroke-width: 0.5; stroke-linecap: square"/>
     </g>
     <g id="line2d_42">
      <g>
       <use xlink:href="#mf2ac5baa58" x="428.733852" y="232.7885" style="stroke: #000000; stroke-width: 0.8"/>
      </g>
     </g>
     <g id="text_27">
      <!-- 0.88 -->
      <g transform="translate(402.80807 236.017836) scale(0.085 -0.085)">
       <use xlink:href="#DejaVuSans-30"/>
       <use xlink:href="#DejaVuSans-2e" transform="translate(63.623047 0)"/>
       <use xlink:href="#DejaVuSans-38" transform="translate(95.410156 0)"/>
       <use xlink:href="#DejaVuSans-38" transform="translate(159.033203 0)"/>
      </g>
     </g>
    </g>
    <g id="ytick_8">
     <g id="line2d_43">
      <path d="M 428.733852 203.0415 
L 755.582547 203.0415 
" clip-path="url(#pb40daeccbd)" style="fill: none; stroke: #b0b0b0; stroke-opacity: 0.3; stroke-width: 0.5; stroke-linecap: square"/>
     </g>
     <g id="line2d_44">
      <g>
       <use xlink:href="#mf2ac5baa58" x="428.733852" y="203.0415" style="stroke: #000000; stroke-width: 0.8"/>
      </g>
     </g>
     <g id="text_28">
      <!-- 0.90 -->
      <g transform="translate(402.80807 206.270836) scale(0.085 -0.085)">
       <use xlink:href="#DejaVuSans-30"/>
       <use xlink:href="#DejaVuSans-2e" transform="translate(63.623047 0)"/>
       <use xlink:href="#DejaVuSans-39" transform="translate(95.410156 0)"/>
       <use xlink:href="#DejaVuSans-30" transform="translate(159.033203 0)"/>
      </g>
     </g>
    </g>
    <g id="ytick_9">
     <g id="line2d_45">
      <path d="M 428.733852 173.2945 
L 755.582547 173.2945 
" clip-path="url(#pb40daeccbd)" style="fill: none; stroke: #b0b0b0; stroke-opacity: 0.3; stroke-width: 0.5; stroke-linecap: square"/>
     </g>
     <g id="line2d_46">
      <g>
       <use xlink:href="#mf2ac5baa58" x="428.733852" y="173.2945" style="stroke: #000000; stroke-width: 0.8"/>
      </g>
     </g>
     <g id="text_29">
      <!-- 0.92 -->
      <g transform="translate(402.80807 176.523836) scale(0.085 -0.085)">
       <use xlink:href="#DejaVuSans-30"/>
       <use xlink:href="#DejaVuSans-2e" transform="translate(63.623047 0)"/>
       <use xlink:href="#DejaVuSans-39" transform="translate(95.410156 0)"/>
       <use xlink:href="#DejaVuSans-32" transform="translate(159.033203 0)"/>
      </g>
     </g>
    </g>
    <g id="ytick_10">
     <g id="line2d_47">
      <path d="M 428.733852 143.5475 
L 755.582547 143.5475 
" clip-path="url(#pb40daeccbd)" style="fill: none; stroke: #b0b0b0; stroke-opacity: 0.3; stroke-width: 0.5; stroke-linecap: square"/>
     </g>
     <g id="line2d_48">
      <g>
       <use xlink:href="#mf2ac5baa58" x="428.733852" y="143.5475" style="stroke: #000000; stroke-width: 0.8"/>
      </g>
     </g>
     <g id="text_30">
      <!-- 0.94 -->
      <g transform="translate(402.80807 146.776836) scale(0.085 -0.085)">
       <use xlink:href="#DejaVuSans-30"/>
       <use xlink:href="#DejaVuSans-2e" transform="translate(63.623047 0)"/>
       <use xlink:href="#DejaVuSans-39" transform="translate(95.410156 0)"/>
       <use xlink:href="#DejaVuSans-34" transform="translate(159.033203 0)"/>
      </g>
     </g>
    </g>
    <g id="ytick_11">
     <g id="line2d_49">
      <path d="M 428.733852 113.8005 
L 755.582547 113.8005 
" clip-path="url(#pb40daeccbd)" style="fill: none; stroke: #b0b0b0; stroke-opacity: 0.3; stroke-width: 0.5; stroke-linecap: square"/>
     </g>
     <g id="line2d_50">
      <g>
       <use xlink:href="#mf2ac5baa58" x="428.733852" y="113.8005" style="stroke: #000000; stroke-width: 0.8"/>
      </g>
     </g>
     <g id="text_31">
      <!-- 0.96 -->
      <g transform="translate(402.80807 117.029836) scale(0.085 -0.085)">
       <use xlink:href="#DejaVuSans-30"/>
       <use xlink:href="#DejaVuSans-2e" transform="translate(63.623047 0)"/>
       <use xlink:href="#DejaVuSans-39" transform="translate(95.410156 0)"/>
       <use xlink:href="#DejaVuSans-36" transform="translate(159.033203 0)"/>
      </g>
     </g>
    </g>
    <g id="ytick_12">
     <g id="line2d_51">
      <path d="M 428.733852 84.0535 
L 755.582547 84.0535 
" clip-path="url(#pb40daeccbd)" style="fill: none; stroke: #b0b0b0; stroke-opacity: 0.3; stroke-width: 0.5; stroke-linecap: square"/>
     </g>
     <g id="line2d_52">
      <g>
       <use xlink:href="#mf2ac5baa58" x="428.733852" y="84.0535" style="stroke: #000000; stroke-width: 0.8"/>
      </g>
     </g>
     <g id="text_32">
      <!-- 0.98 -->
      <g transform="translate(402.80807 87.282836) scale(0.085 -0.085)">
       <use xlink:href="#DejaVuSans-30"/>
       <use xlink:href="#DejaVuSans-2e" transform="translate(63.623047 0)"/>
       <use xlink:href="#DejaVuSans-39" transform="translate(95.410156 0)"/>
       <use xlink:href="#DejaVuSans-38" transform="translate(159.033203 0)"/>
      </g>
     </g>
    </g>
    <g id="ytick_13">
     <g id="line2d_53">
      <path d="M 428.733852 54.3065 
L 755.582547 54.3065 
" clip-path="url(#pb40daeccbd)" style="fill: none; stroke: #b0b0b0; stroke-opacity: 0.3; stroke-width: 0.5; stroke-linecap: square"/>
     </g>
     <g id="line2d_54">
      <g>
       <use xlink:href="#mf2ac5baa58" x="428.733852" y="54.3065" style="stroke: #000000; stroke-width: 0.8"/>
      </g>
     </g>
     <g id="text_33">
      <!-- 1.00 -->
      <g transform="translate(402.80807 57.535836) scale(0.085 -0.085)">
       <use xlink:href="#DejaVuSans-31"/>
       <use xlink:href="#DejaVuSans-2e" transform="translate(63.623047 0)"/>
       <use xlink:href="#DejaVuSans-30" transform="translate(95.410156 0)"/>
       <use xlink:href="#DejaVuSans-30" transform="translate(159.033203 0)"/>
      </g>
     </g>
    </g>
    <g id="text_34">
     <!-- Singlet yield  Φ_S -->
     <g transform="translate(396.450258 194.681906) rotate(-90) scale(0.1 -0.1)">
      <defs>
       <path id="DejaVuSans-53" d="M 3425 4513 
L 3425 3897 
Q 3066 4069 2747 4153 
Q 2428 4238 2131 4238 
Q 1616 4238 1336 4038 
Q 1056 3838 1056 3469 
Q 1056 3159 1242 3001 
Q 1428 2844 1947 2747 
L 2328 2669 
Q 3034 2534 3370 2195 
Q 3706 1856 3706 1288 
Q 3706 609 3251 259 
Q 2797 -91 1919 -91 
Q 1588 -91 1214 -16 
Q 841 59 441 206 
L 441 856 
Q 825 641 1194 531 
Q 1563 422 1919 422 
Q 2459 422 2753 634 
Q 3047 847 3047 1241 
Q 3047 1584 2836 1778 
Q 2625 1972 2144 2069 
L 1759 2144 
Q 1053 2284 737 2584 
Q 422 2884 422 3419 
Q 422 4038 858 4394 
Q 1294 4750 2059 4750 
Q 2388 4750 2728 4690 
Q 3069 4631 3425 4513 
z
" transform="scale(0.015625)"/>
       <path id="DejaVuSans-3a6" d="M 2206 3644 
Q 1738 3578 1431 3306 
Q 1025 2947 1025 2328 
Q 1025 1713 1431 1353 
Q 1738 1081 2206 1016 
L 2206 3644 
z
M 2838 1016 
Q 3306 1081 3613 1353 
Q 4013 1713 4013 2328 
Q 4013 2947 3613 3306 
Q 3306 3578 2838 3644 
L 2838 1016 
z
M 2206 494 
Q 1444 563 950 981 
Q 359 1481 359 2328 
Q 359 3175 950 3678 
Q 1441 4100 2206 4169 
L 2206 4666 
L 2838 4666 
L 2838 4169 
Q 3600 4097 4091 3678 
Q 4678 3175 4678 2328 
Q 4678 1484 4091 981 
Q 3600 563 2838 491 
L 2838 0 
L 2206 0 
L 2206 494 
z
" transform="scale(0.015625)"/>
       <path id="DejaVuSans-5f" d="M 3263 -1063 
L 3263 -1509 
L -63 -1509 
L -63 -1063 
L 3263 -1063 
z
" transform="scale(0.015625)"/>
      </defs>
      <use xlink:href="#DejaVuSans-53"/>
      <use xlink:href="#DejaVuSans-69" transform="translate(63.476562 0)"/>
      <use xlink:href="#DejaVuSans-6e" transform="translate(91.259766 0)"/>
      <use xlink:href="#DejaVuSans-67" transform="translate(154.638672 0)"/>
      <use xlink:href="#DejaVuSans-6c" transform="translate(218.115234 0)"/>
      <use xlink:href="#DejaVuSans-65" transform="translate(245.898438 0)"/>
      <use xlink:href="#DejaVuSans-74" transform="translate(307.421875 0)"/>
      <use xlink:href="#DejaVuSans-20" transform="translate(346.630859 0)"/>
      <use xlink:href="#DejaVuSans-79" transform="translate(378.417969 0)"/>
      <use xlink:href="#DejaVuSans-69" transform="translate(437.597656 0)"/>
      <use xlink:href="#DejaVuSans-65" transform="translate(465.380859 0)"/>
      <use xlink:href="#DejaVuSans-6c" transform="translate(526.904297 0)"/>
      <use xlink:href="#DejaVuSans-64" transform="translate(554.6875 0)"/>
      <use xlink:href="#DejaVuSans-20" transform="translate(618.164062 0)"/>
      <use xlink:href="#DejaVuSans-20" transform="translate(649.951172 0)"/>
      <use xlink:href="#DejaVuSans-3a6" transform="translate(681.738281 0)"/>
      <use xlink:href="#DejaVuSans-5f" transform="translate(760.449219 0)"/>
      <use xlink:href="#DejaVuSans-53" transform="translate(810.449219 0)"/>
     </g>
    </g>
   </g>
   <g id="line2d_55">
    <path d="M 428.733852 255.69369 
L 755.582547 255.69369 
" clip-path="url(#pb40daeccbd)" style="fill: none; stroke-dasharray: 0.7,1.155; stroke-dashoffset: 0; stroke: #868e96; stroke-opacity: 0.7; stroke-width: 0.7"/>
   </g>
   <g id="patch_10">
    <path d="M 428.733852 269.97225 
L 428.733852 31.99625 
" style="fill: none; stroke: #000000; stroke-width: 0.8; stroke-linejoin: miter; stroke-linecap: square"/>
   </g>
   <g id="patch_11">
    <path d="M 755.582547 269.97225 
L 755.582547 31.99625 
" style="fill: none; stroke: #000000; stroke-width: 0.8; stroke-linejoin: miter; stroke-linecap: square"/>
   </g>
   <g id="patch_12">
    <path d="M 428.733852 269.97225 
L 755.582547 269.97225 
" style="fill: none; stroke: #000000; stroke-width: 0.8; stroke-linejoin: miter; stroke-linecap: square"/>
   </g>
   <g id="patch_13">
    <path d="M 428.733852 31.99625 
L 755.582547 31.99625 
" style="fill: none; stroke: #000000; stroke-width: 0.8; stroke-linejoin: miter; stroke-linecap: square"/>
   </g>
   <g id="line2d_56">
    <path d="M 438.253717 252.42152 
L 487.049004 250.677808 
L 534.409136 252.22794 
L 583.204424 250.04176 
L 629.1294 250.098563 
L 675.054376 255.551682 
L 676.489532 254.681694 
L 723.849664 54.3065 
L 723.849664 54.3065 
" clip-path="url(#pb40daeccbd)" style="fill: none; stroke: #7048e8; stroke-width: 2.5; stroke-linecap: square"/>
   </g>
   <g id="patch_14">
    <path d="M 723.849664 252.351575 
Q 723.849664 154.999286 723.849664 57.646997 
" style="fill: none; stroke: #e53e3e; stroke-width: 1.2; stroke-linecap: round"/>
    <path d="M 725.849664 248.351575 
L 723.849664 252.351575 
L 721.849664 248.351575 
" style="fill: none; stroke: #e53e3e; stroke-width: 1.2; stroke-linecap: round"/>
    <path d="M 721.849664 61.646997 
L 723.849664 57.646997 
L 725.849664 61.646997 
" style="fill: none; stroke: #e53e3e; stroke-width: 1.2; stroke-linecap: round"/>
   </g>
   <g id="text_35">
    <!-- Δ = 0.135 -->
    <g style="fill: #e53e3e" transform="translate(727.022952 149.117472) scale(0.075 -0.075)">
     <defs>
      <path id="DejaVuSans-394" d="M 2188 4044 
L 906 525 
L 3472 525 
L 2188 4044 
z
M 50 0 
L 1831 4666 
L 2547 4666 
L 4325 0 
L 50 0 
z
" transform="scale(0.015625)"/>
      <path id="DejaVuSans-3d" d="M 678 2906 
L 4684 2906 
L 4684 2381 
L 678 2381 
L 678 2906 
z
M 678 1631 
L 4684 1631 
L 4684 1100 
L 678 1100 
L 678 1631 
z
" transform="scale(0.015625)"/>
     </defs>
     <use xlink:href="#DejaVuSans-394"/>
     <use xlink:href="#DejaVuSans-20" transform="translate(68.408203 0)"/>
     <use xlink:href="#DejaVuSans-3d" transform="translate(100.195312 0)"/>
     <use xlink:href="#DejaVuSans-20" transform="translate(183.984375 0)"/>
     <use xlink:href="#DejaVuSans-30" transform="translate(215.771484 0)"/>
     <use xlink:href="#DejaVuSans-2e" transform="translate(279.394531 0)"/>
     <use xlink:href="#DejaVuSans-31" transform="translate(311.181641 0)"/>
     <use xlink:href="#DejaVuSans-33" transform="translate(374.804688 0)"/>
     <use xlink:href="#DejaVuSans-35" transform="translate(438.427734 0)"/>
    </g>
    <!-- (compass -->
    <g style="fill: #e53e3e" transform="translate(727.022952 157.515831) scale(0.075 -0.075)">
     <use xlink:href="#DejaVuSans-28"/>
     <use xlink:href="#DejaVuSans-63" transform="translate(39.013672 0)"/>
     <use xlink:href="#DejaVuSans-6f" transform="translate(93.994141 0)"/>
     <use xlink:href="#DejaVuSans-6d" transform="translate(155.175781 0)"/>
     <use xlink:href="#DejaVuSans-70" transform="translate(252.587891 0)"/>
     <use xlink:href="#DejaVuSans-61" transform="translate(316.064453 0)"/>
     <use xlink:href="#DejaVuSans-73" transform="translate(377.34375 0)"/>
     <use xlink:href="#DejaVuSans-73" transform="translate(429.443359 0)"/>
    </g>
    <!-- signal) -->
    <g style="fill: #e53e3e" transform="translate(727.022952 165.914191) scale(0.075 -0.075)">
     <use xlink:href="#DejaVuSans-73"/>
     <use xlink:href="#DejaVuSans-69" transform="translate(52.099609 0)"/>
     <use xlink:href="#DejaVuSans-67" transform="translate(79.882812 0)"/>
     <use xlink:href="#DejaVuSans-6e" transform="translate(143.359375 0)"/>
     <use xlink:href="#DejaVuSans-61" transform="translate(206.738281 0)"/>
     <use xlink:href="#DejaVuSans-6c" transform="translate(268.017578 0)"/>
     <use xlink:href="#DejaVuSans-29" transform="translate(295.800781 0)"/>
    </g>
   </g>
   <g id="text_36">
    <!-- Radical Pair: Cryptochrome -->
    <g transform="translate(524.326168 14.798437) scale(0.1 -0.1)">
     <defs>
      <path id="DejaVuSans-52" d="M 2841 2188 
Q 3044 2119 3236 1894 
Q 3428 1669 3622 1275 
L 4263 0 
L 3584 0 
L 2988 1197 
Q 2756 1666 2539 1819 
Q 2322 1972 1947 1972 
L 1259 1972 
L 1259 0 
L 628 0 
L 628 4666 
L 2053 4666 
Q 2853 4666 3247 4331 
Q 3641 3997 3641 3322 
Q 3641 2881 3436 2590 
Q 3231 2300 2841 2188 
z
M 1259 4147 
L 1259 2491 
L 2053 2491 
Q 2509 2491 2742 2702 
Q 2975 2913 2975 3322 
Q 2975 3731 2742 3939 
Q 2509 4147 2053 4147 
L 1259 4147 
z
" transform="scale(0.015625)"/>
      <path id="DejaVuSans-50" d="M 1259 4147 
L 1259 2394 
L 2053 2394 
Q 2494 2394 2734 2622 
Q 2975 2850 2975 3272 
Q 2975 3691 2734 3919 
Q 2494 4147 2053 4147 
L 1259 4147 
z
M 628 4666 
L 2053 4666 
Q 2838 4666 3239 4311 
Q 3641 3956 3641 3272 
Q 3641 2581 3239 2228 
Q 2838 1875 2053 1875 
L 1259 1875 
L 1259 0 
L 628 0 
L 628 4666 
z
" transform="scale(0.015625)"/>
     </defs>
     <use xlink:href="#DejaVuSans-52"/>
     <use xlink:href="#DejaVuSans-61" transform="translate(67.232422 0)"/>
     <use xlink:href="#DejaVuSans-64" transform="translate(128.511719 0)"/>
     <use xlink:href="#DejaVuSans-69" transform="translate(191.988281 0)"/>
     <use xlink:href="#DejaVuSans-63" transform="translate(219.771484 0)"/>
     <use xlink:href="#DejaVuSans-61" transform="translate(274.751953 0)"/>
     <use xlink:href="#DejaVuSans-6c" transform="translate(336.03125 0)"/>
     <use xlink:href="#DejaVuSans-20" transform="translate(363.814453 0)"/>
     <use xlink:href="#DejaVuSans-50" transform="translate(395.601562 0)"/>
     <use xlink:href="#DejaVuSans-61" transform="translate(451.404297 0)"/>
     <use xlink:href="#DejaVuSans-69" transform="translate(512.683594 0)"/>
     <use xlink:href="#DejaVuSans-72" transform="translate(540.466797 0)"/>
     <use xlink:href="#DejaVuSans-3a" transform="translate(579.830078 0)"/>
     <use xlink:href="#DejaVuSans-20" transform="translate(613.521484 0)"/>
     <use xlink:href="#DejaVuSans-43" transform="translate(645.308594 0)"/>
     <use xlink:href="#DejaVuSans-72" transform="translate(715.132812 0)"/>
     <use xlink:href="#DejaVuSans-79" transform="translate(756.246094 0)"/>
     <use xlink:href="#DejaVuSans-70" transform="translate(815.425781 0)"/>
     <use xlink:href="#DejaVuSans-74" transform="translate(878.902344 0)"/>
     <use xlink:href="#DejaVuSans-6f" transform="translate(918.111328 0)"/>
     <use xlink:href="#DejaVuSans-63" transform="translate(979.292969 0)"/>
     <use xlink:href="#DejaVuSans-68" transform="translate(1034.273438 0)"/>
     <use xlink:href="#DejaVuSans-72" transform="translate(1097.652344 0)"/>
     <use xlink:href="#DejaVuSans-6f" transform="translate(1136.515625 0)"/>
     <use xlink:href="#DejaVuSans-6d" transform="translate(1197.697266 0)"/>
     <use xlink:href="#DejaVuSans-65" transform="translate(1295.109375 0)"/>
    </g>
    <!-- (avian magnetic compass, B = 50 μT) -->
    <g transform="translate(497.691012 25.99625) scale(0.1 -0.1)">
     <defs>
      <path id="DejaVuSans-76" d="M 191 3500 
L 800 3500 
L 1894 563 
L 2988 3500 
L 3597 3500 
L 2284 0 
L 1503 0 
L 191 3500 
z
" transform="scale(0.015625)"/>
      <path id="DejaVuSans-3bc" d="M 544 -1331 
L 544 3500 
L 1119 3500 
L 1119 1325 
Q 1119 872 1334 640 
Q 1550 409 1972 409 
Q 2434 409 2667 671 
Q 2900 934 2900 1459 
L 2900 3500 
L 3475 3500 
L 3475 806 
Q 3475 619 3529 530 
Q 3584 441 3700 441 
Q 3728 441 3778 458 
Q 3828 475 3916 513 
L 3916 50 
Q 3788 -22 3673 -56 
Q 3559 -91 3450 -91 
Q 3234 -91 3106 31 
Q 2978 153 2931 403 
Q 2775 156 2548 32 
Q 2322 -91 2016 -91 
Q 1697 -91 1473 31 
Q 1250 153 1119 397 
L 1119 -1331 
L 544 -1331 
z
" transform="scale(0.015625)"/>
     </defs>
     <use xlink:href="#DejaVuSans-28"/>
     <use xlink:href="#DejaVuSans-61" transform="translate(39.013672 0)"/>
     <use xlink:href="#DejaVuSans-76" transform="translate(100.292969 0)"/>
     <use xlink:href="#DejaVuSans-69" transform="translate(159.472656 0)"/>
     <use xlink:href="#DejaVuSans-61" transform="translate(187.255859 0)"/>
     <use xlink:href="#DejaVuSans-6e" transform="translate(248.535156 0)"/>
     <use xlink:href="#DejaVuSans-20" transform="translate(311.914062 0)"/>
     <use xlink:href="#DejaVuSans-6d" transform="translate(343.701172 0)"/>
     <use xlink:href="#DejaVuSans-61" transform="translate(441.113281 0)"/>
     <use xlink:href="#DejaVuSans-67" transform="translate(502.392578 0)"/>
     <use xlink:href="#DejaVuSans-6e" transform="translate(565.869141 0)"/>
     <use xlink:href="#DejaVuSans-65" transform="translate(629.248047 0)"/>
     <use xlink:href="#DejaVuSans-74" transform="translate(690.771484 0)"/>
     <use xlink:href="#DejaVuSans-69" transform="translate(729.980469 0)"/>
     <use xlink:href="#DejaVuSans-63" transform="translate(757.763672 0)"/>
     <use xlink:href="#DejaVuSans-20" transform="translate(812.744141 0)"/>
     <use xlink:href="#DejaVuSans-63" transform="translate(844.53125 0)"/>
     <use xlink:href="#DejaVuSans-6f" transform="translate(899.511719 0)"/>
     <use xlink:href="#DejaVuSans-6d" transform="translate(960.693359 0)"/>
     <use xlink:href="#DejaVuSans-70" transform="translate(1058.105469 0)"/>
     <use xlink:href="#DejaVuSans-61" transform="translate(1121.582031 0)"/>
     <use xlink:href="#DejaVuSans-73" transform="translate(1182.861328 0)"/>
     <use xlink:href="#DejaVuSans-73" transform="translate(1234.960938 0)"/>
     <use xlink:href="#DejaVuSans-2c" transform="translate(1287.060547 0)"/>
     <use xlink:href="#DejaVuSans-20" transform="translate(1318.847656 0)"/>
     <use xlink:href="#DejaVuSans-42" transform="translate(1350.634766 0)"/>
     <use xlink:href="#DejaVuSans-20" transform="translate(1419.238281 0)"/>
     <use xlink:href="#DejaVuSans-3d" transform="translate(1451.025391 0)"/>
     <use xlink:href="#DejaVuSans-20" transform="translate(1534.814453 0)"/>
     <use xlink:href="#DejaVuSans-35" transform="translate(1566.601562 0)"/>
     <use xlink:href="#DejaVuSans-30" transform="translate(1630.224609 0)"/>
     <use xlink:href="#DejaVuSans-20" transform="translate(1693.847656 0)"/>
     <use xlink:href="#DejaVuSans-3bc" transform="translate(1725.634766 0)"/>
     <use xlink:href="#DejaVuSans-54" transform="translate(1789.257812 0)"/>
     <use xlink:href="#DejaVuSans-29" transform="translate(1850.341797 0)"/>
    </g>
   </g>
   <g id="PathCollection_1">
    <defs>
     <path id="m1dd3015f95" d="M 0 3.162278 
C 0.838646 3.162278 1.643056 2.82908 2.236068 2.236068 
C 2.82908 1.643056 3.162278 0.838646 3.162278 0 
C 3.162278 -0.838646 2.82908 -1.643056 2.236068 -2.236068 
C 1.643056 -2.82908 0.838646 -3.162278 0 -3.162278 
C -0.838646 -3.162278 -1.643056 -2.82908 -2.236068 -2.236068 
C -2.82908 -1.643056 -3.162278 -0.838646 -3.162278 0 
C -3.162278 0.838646 -2.82908 1.643056 -2.236068 2.236068 
C -1.643056 2.82908 -0.838646 3.162278 0 3.162278 
z
" style="stroke: #7048e8"/>
    </defs>
    <g clip-path="url(#pb40daeccbd)">
     <use xlink:href="#m1dd3015f95" x="438.253717" y="252.42152" style="fill: #7048e8; stroke: #7048e8"/>
     <use xlink:href="#m1dd3015f95" x="485.853041" y="250.6367" style="fill: #7048e8; stroke: #7048e8"/>
     <use xlink:href="#m1dd3015f95" x="533.452366" y="252.272785" style="fill: #7048e8; stroke: #7048e8"/>
     <use xlink:href="#m1dd3015f95" x="581.05169" y="250.04176" style="fill: #7048e8; stroke: #7048e8"/>
     <use xlink:href="#m1dd3015f95" x="628.651015" y="250.04176" style="fill: #7048e8; stroke: #7048e8"/>
     <use xlink:href="#m1dd3015f95" x="676.250339" y="255.69369" style="fill: #7048e8; stroke: #7048e8"/>
     <use xlink:href="#m1dd3015f95" x="723.849664" y="54.3065" style="fill: #7048e8; stroke: #7048e8"/>
    </g>
   </g>
  </g>
 </g>
 <defs>
  <clipPath id="p2105b9fe5a">
   <rect x="46.803906" y="31.99625" width="326.848695" height="237.976"/>
  </clipPath>
  <clipPath id="pb40daeccbd">
   <rect x="428.733852" y="31.99625" width="326.848695" height="237.976"/>
  </clipPath>
 </defs>
</svg>
