<svg xmlns="http://www.w3.org/2000/svg" viewBox="0 0 800 400">
  <!-- Background -->
  <rect width="800" height="400" fill="#f8f9fa"/>

  <!-- Title -->
  <text x="400" y="35" font-family="Arial, sans-serif" font-size="24" font-weight="bold" fill="#2c3e50" text-anchor="middle">
    Two Paradigms of Quantum Computing
  </text>

  <!-- Gate-Based (Left) -->
  <g transform="translate(140, 120)">
    <text x="0" y="0" font-family="Arial, sans-serif" font-size="18" fill="#7f8c8d" text-anchor="middle" font-weight="bold">Gate-Based</text>

    <!-- Circuit representation -->
    <rect x="-80" y="20" width="160" height="140" fill="white" stroke="#3498db" stroke-width="2" rx="8"/>

    <!-- Gate symbols -->
    <rect x="-40" y="50" width="30" height="25" fill="#3498db" opacity="0.7"/>
    <text x="-25" y="67" font-family="Arial, sans-serif" font-size="12" fill="white" text-anchor="middle" font-weight="bold">H</text>

    <circle cx="25" cy="85" r="8" fill="none" stroke="#3498db" stroke-width="2"/>
    <line x1="25" y1="93" x2="25" y2="107" stroke="#3498db" stroke-width="2"/>
    <circle cx="25" cy="107" r="4" fill="#3498db"/>

    <rect x="-40" y="120" width="30" height="25" fill="#3498db" opacity="0.7"/>
    <text x="-25" y="137" font-family="Arial, sans-serif" font-size="12" fill="white" text-anchor="middle" font-weight="bold">T</text>

    <!-- Wires -->
    <line x1="-70" y1="62" x2="70" y2="62" stroke="#95a5a6" stroke-width="2"/>
    <line x1="-70" y1="107" x2="70" y2="107" stroke="#95a5a6" stroke-width="2"/>

    <text x="0" y="190" font-family="Arial, sans-serif" font-size="11" fill="#7f8c8d" text-anchor="middle">Sequential Operations</text>
    <text x="0" y="205" font-family="Arial, sans-serif" font-size="11" fill="#7f8c8d" text-anchor="middle">on Individual Qubits</text>
  </g>

  <!-- Arrow -->
  <g transform="translate(400, 200)">
    <line x1="-100" y1="0" x2="100" y2="0" stroke="#e74c3c" stroke-width="3" marker-end="url(#arrowhead)"/>
    <line x1="100" y1="0" x2="-100" y2="0" stroke="#e74c3c" stroke-width="3" marker-start="url(#arrowhead2)"/>
    <text x="0" y="-15" font-family="Arial, sans-serif" font-size="13" font-weight="bold" fill="#e74c3c" text-anchor="middle">Different Physics</text>
  </g>

  <!-- MBQC (Right) -->
  <g transform="translate(660, 120)">
    <text x="0" y="0" font-family="Arial, sans-serif" font-size="18" fill="#7f8c8d" text-anchor="middle" font-weight="bold">MBQC</text>

    <!-- Cluster state representation -->
    <rect x="-80" y="20" width="160" height="140" fill="white" stroke="#9b59b6" stroke-width="2" rx="8"/>

    <!-- Entangled network -->
    <circle cx="-40" cy="60" r="12" fill="#9b59b6" opacity="0.7"/>
    <circle cx="0" cy="60" r="12" fill="#9b59b6" opacity="0.7"/>
    <circle cx="40" cy="60" r="12" fill="#9b59b6" opacity="0.7"/>
    <circle cx="-40" cy="110" r="12" fill="#9b59b6" opacity="0.7"/>
    <circle cx="0" cy="110" r="12" fill="#9b59b6" opacity="0.7"/>
    <circle cx="40" cy="110" r="12" fill="#9b59b6" opacity="0.7"/>

    <!-- Connections -->
    <line x1="-40" y1="72" x2="-40" y2="98" stroke="#9b59b6" stroke-width="2"/>
    <line x1="0" y1="72" x2="0" y2="98" stroke="#9b59b6" stroke-width="2"/>
    <line x1="40" y1="72" x2="40" y2="98" stroke="#9b59b6" stroke-width="2"/>
    <line x1="-28" y1="60" x2="-12" y2="60" stroke="#9b59b6" stroke-width="2"/>
    <line x1="12" y1="60" x2="28" y2="60" stroke="#9b59b6" stroke-width="2"/>
    <line x1="-28" y1="110" x2="-12" y2="110" stroke="#9b59b6" stroke-width="2"/>
    <line x1="12" y1="110" x2="28" y2="110" stroke="#9b59b6" stroke-width="2"/>

    <!-- Measurement symbols -->
    <path d="M -40 135 L -40 145" stroke="#e74c3c" stroke-width="2" marker-end="url(#measure)"/>
    <path d="M 0 135 L 0 145" stroke="#e74c3c" stroke-width="2" marker-end="url(#measure)"/>

    <text x="0" y="190" font-family="Arial, sans-serif" font-size="11" fill="#7f8c8d" text-anchor="middle">Entanglement + Measurement</text>
    <text x="0" y="205" font-family="Arial, sans-serif" font-size="11" fill="#7f8c8d" text-anchor="middle">Questions of Relations</text>
  </g>

  <!-- Bottom comparison -->
  <g transform="translate(200, 320)">
    <text x="0" y="0" font-family="Arial, sans-serif" font-size="12" fill="#3498db" font-weight="bold">Gate Model:</text>
    <text x="0" y="18" font-family="Arial, sans-serif" font-size="11" fill="#7f8c8d">Apply transformations</text>
    <text x="0" y="33" font-family="Arial, sans-serif" font-size="11" fill="#7f8c8d">Classical circuit analogy</text>
  </g>

  <g transform="translate(600, 320)">
    <text x="0" y="0" font-family="Arial, sans-serif" font-size="12" fill="#9b59b6" font-weight="bold">MBQC Model:</text>
    <text x="0" y="18" font-family="Arial, sans-serif" font-size="11" fill="#7f8c8d">Ask questions</text>
    <text x="0" y="33" font-family="Arial, sans-serif" font-size="11" fill="#7f8c8d">Quantum teleportation</text>
  </g>

  <!-- Markers -->
  <defs>
    <marker id="arrowhead" markerWidth="10" markerHeight="10" refX="9" refY="3" orient="auto">
      <polygon points="0 0, 10 3, 0 6" fill="#e74c3c"/>
    </marker>
    <marker id="arrowhead2" markerWidth="10" markerHeight="10" refX="1" refY="3" orient="auto">
      <polygon points="10 0, 0 3, 10 6" fill="#e74c3c"/>
    </marker>
    <marker id="measure" markerWidth="8" markerHeight="8" refX="4" refY="4" orient="auto">
      <circle cx="4" cy="4" r="3" fill="#e74c3c"/>
    </marker>
  </defs>

  <!-- Subtitle -->
  <text x="400" y="380" font-family="Arial, sans-serif" font-size="13" fill="#7f8c8d" text-anchor="middle">
    QRL compiles to MBQC, not gates
  </text>
</svg>
